<?xml version="1.0" encoding="UTF-8" standalone="no"?>
<!DOCTYPE svg PUBLIC "-//W3C//DTD SVG 1.1//EN" "http://www.w3.org/Graphics/SVG/1.1/DTD/svg11.dtd">
<svg xmlns="http://www.w3.org/2000/svg" xmlns:dc="http://purl.org/dc/elements/1.1/" xmlns:xl="http://www.w3.org/1999/xlink" version="1.1" viewBox="107.9934 118.67552 40.77728 45.45441" width="40.77728" height="45.45441">
  <defs/>
  <g id="Canvas_1" stroke-dasharray="none" fill="none" stroke-opacity="1" stroke="none" fill-opacity="1">
    <title>Canvas 1</title>
    <g id="Canvas_1_Layer_1">
      <title>Layer 1</title>
      <g id="Graphic_182">
        <title>C</title>
        <path d="M 112.98839 164.12993 L 122.6151 164.12993 L 126.79273 141.87952 L 127.61009 141.87952 L 127.61009 141.06216 L 107.9934 141.06216 L 107.9934 141.87952 L 108.81076 141.87952 Z M 118.21043 160.4064 L 119.93597 160.4064 L 119.6181 163.58502 L 118.21043 163.58502 Z M 115.62211 160.4064 L 117.39306 160.4064 L 117.39306 163.58502 L 115.93998 163.58502 Z M 120.75333 160.4064 L 122.47887 160.4064 L 121.88856 163.58502 L 120.43547 163.58502 Z M 113.07921 160.4064 L 114.80475 160.4064 L 115.12261 163.58502 L 113.71494 163.58502 Z M 118.21043 141.87952 L 121.6161 141.87952 L 121.34365 145.05815 L 118.21043 145.05815 Z M 113.85116 141.87952 L 117.39306 141.87952 L 117.39306 145.05815 L 114.12362 145.05815 Z M 122.43346 141.87952 L 125.97537 141.87952 L 125.33964 145.05815 L 122.16101 145.05815 Z M 109.62813 141.87952 L 113.0338 141.87952 L 113.30625 145.05815 L 110.21844 145.05815 Z M 114.16903 145.60306 L 117.39306 145.60306 L 117.39306 148.78169 L 114.48689 148.78169 Z M 118.21043 145.60306 L 121.29824 145.60306 L 120.98038 148.78169 L 118.21043 148.78169 Z M 122.1156 145.60306 L 125.24882 145.60306 L 124.6585 148.78169 L 121.84315 148.78169 Z M 110.30926 145.60306 L 113.35166 145.60306 L 113.66953 148.78169 L 110.89958 148.78169 Z M 114.5323 149.3266 L 117.39306 149.3266 L 117.39306 152.45982 L 114.85016 152.45982 Z M 118.21043 149.3266 L 120.93497 149.3266 L 120.66251 152.45982 L 118.21043 152.45982 Z M 121.79774 149.3266 L 124.56769 149.3266 L 123.93196 152.45982 L 121.47987 152.45982 Z M 110.9904 149.3266 L 113.71494 149.3266 L 114.0328 152.45982 L 111.58071 152.45982 Z M 114.89557 153.00472 L 117.39306 153.00472 L 117.39306 156.18335 L 115.21343 156.18335 Z M 118.21043 153.00472 L 120.6171 153.00472 L 120.34465 156.18335 L 118.21043 156.18335 Z M 118.21043 156.72826 L 120.29924 156.72826 L 119.98138 159.86148 L 118.21043 159.86148 Z M 115.25884 156.72826 L 117.39306 156.72826 L 117.39306 159.86148 L 115.5767 159.86148 Z M 121.43447 153.00472 L 123.84114 153.00472 L 123.25083 156.18335 L 121.16201 156.18335 Z M 121.1166 156.72826 L 123.16001 156.72826 L 122.56969 159.86148 L 120.79874 159.86148 Z M 111.67153 153.00472 L 114.07821 153.00472 L 114.39607 156.18335 L 112.26185 156.18335 Z M 112.35267 156.72826 L 114.44148 156.72826 L 114.75934 159.86148 L 112.98839 159.86148 Z M 131.51526 164.12993 L 138.82611 144.01374 L 138.91693 144.01374 L 142.73129 164.12993 L 144.13897 136.7029 L 134.7393 136.7029 Z M 123.20542 134.47785 C 122.93296 134.7049 122.84214 135.2498 122.79674 135.56767 C 122.25183 135.43144 121.6161 135.15899 121.1166 135.15899 C 120.6171 135.15899 119.20942 136.15798 118.21043 136.15798 C 117.39306 136.15798 116.25784 135.2498 115.84916 134.65949 C 117.25684 133.61508 118.34665 132.34363 119.1186 130.79972 C 121.16201 131.29922 123.70492 131.52627 125.52128 131.57168 C 125.02178 132.61608 124.34064 133.47885 123.20542 134.47785 Z M 119.93597 126.25882 L 119.93597 126.34964 L 132.28722 129.7099 C 133.55867 130.84513 134.37603 132.25281 134.7393 135.7039 L 144.13897 135.02276 C 144.00274 133.43344 142.95833 130.164 139.18938 126.30423 Z M 124.20441 130.93595 L 122.66051 130.93595 L 122.66051 130.84513 L 123.79573 130.30022 Z M 123.84114 134.52326 C 124.88555 133.7059 125.88455 132.29822 126.42946 130.93595 C 125.97537 131.02677 125.47587 131.02677 125.02178 131.02677 C 124.6131 131.02677 124.34064 130.164 123.97737 129.75532 C 123.56869 129.89154 123.06919 130.39104 122.52428 130.52727 C 121.93396 130.6635 120.39006 130.52727 118.84615 130.39104 C 118.16502 131.84413 116.80275 133.47885 115.12261 134.61408 C 115.75834 135.43144 117.25684 136.7029 118.34665 136.7029 C 119.30024 136.7029 120.39006 135.7039 121.1166 135.7039 C 121.84315 135.7039 122.56969 136.02176 123.34164 136.15798 C 123.43246 135.38603 123.47787 134.79571 123.84114 134.52326 Z M 132.10558 121.80874 C 132.10558 123.53428 133.51326 124.94196 135.2388 124.94196 C 136.96434 124.94196 138.37202 123.53428 138.37202 121.80874 C 138.37202 120.0832 136.96434 118.67552 135.2388 118.67552 C 133.51326 118.67552 132.10558 120.0832 132.10558 121.80874 Z" fill="black"/>
      </g>
    </g>
  </g>
</svg>
