<?xml version="1.0" encoding="UTF-8" standalone="no"?>
<!DOCTYPE svg PUBLIC "-//W3C//DTD SVG 1.1//EN" "http://www.w3.org/Graphics/SVG/1.1/DTD/svg11.dtd">
<svg xmlns:xl="http://www.w3.org/1999/xlink" xmlns:dc="http://purl.org/dc/elements/1.1/" version="1.1" xmlns="http://www.w3.org/2000/svg" viewBox="274.57732 342.6875 40.791504 24.677166" width="40.791504" height="24.677166">
  <defs/>
  <g id="Canvas_1" stroke="none" stroke-opacity="1" fill-opacity="1" fill="none" stroke-dasharray="none">
    <title>Canvas 1</title>
    <g id="Canvas_1_Layer_1">
      <title>Layer 1</title>
      <g id="Group_85">
        <title>Graphic_366</title>
        <g id="Graphic_86">
          <path d="M 279.24387 366.36467 L 285.15966 366.36467 L 288.36405 361.74296 C 289.22676 360.4797 289.96623 359.27805 290.58246 358.13804 C 291.1987 356.99802 291.66086 355.858 291.99978 354.7796 C 292.3079 353.7012 292.46195 352.6228 292.46195 351.5752 C 292.46195 349.26436 291.69167 347.38486 290.1203 345.90592 C 288.54892 344.42697 286.51537 343.6875 283.958 343.6875 C 281.52392 343.6875 279.52118 344.4578 277.9498 345.96754 C 276.37842 347.4773 275.57732 349.3876 275.57732 351.69846 C 275.57732 354.04012 276.25518 355.8888 277.61088 357.2753 C 278.96658 358.631 280.692 359.30887 282.7872 359.30887 C 283.4034 359.30887 284.05044 359.21643 284.6975 359.06237 Z M 280.4147 351.7601 C 280.4147 350.3423 281.1793 348.0319 284.05044 348.0319 C 286.83957 348.0319 287.717 350.45202 287.717 351.7601 C 287.717 353.1066 286.59915 354.96245 284.03513 354.96245 C 281.47108 354.96245 280.4147 353.21835 280.4147 351.7601 Z" stroke="black" stroke-linecap="butt" stroke-linejoin="round" stroke-width="2"/>
        </g>
      </g>
      <g id="Group_83">
        <title>Graphic_367</title>
        <g id="Graphic_84">
          <path d="M 311.40725 344.2113 L 309.62387 344.2113 L 304.0162 359.80185 L 298.40854 344.2113 L 293.57114 344.2113 L 301.64373 366.149 L 306.32706 366.149 L 314.36883 344.2113 Z" stroke="black" stroke-linecap="round" stroke-linejoin="round" stroke-width="2"/>
        </g>
      </g>
    </g>
  </g>
</svg>
