<?xml version="1.0" encoding="UTF-8" standalone="no"?>
<!DOCTYPE svg PUBLIC "-//W3C//DTD SVG 1.1//EN" "http://www.w3.org/Graphics/SVG/1.1/DTD/svg11.dtd">
<svg xmlns="http://www.w3.org/2000/svg" xmlns:dc="http://purl.org/dc/elements/1.1/" xmlns:xl="http://www.w3.org/1999/xlink" version="1.1" viewBox="45.017857 117.82638 45.409 42.68446" width="45.409" height="42.68446">
  <defs/>
  <g id="Canvas_1" stroke-dasharray="none" fill="none" stroke-opacity="1" stroke="none" fill-opacity="1">
    <title>Canvas 1</title>
    <g id="Canvas_1_Layer_1">
      <title>Layer 1</title>
      <g id="Graphic_184">
        <title>G</title>
        <path d="M 62.45491 133.71953 L 67.813175 124.4561 L 70.17444 128.40668 L 67.54072 129.95059 L 68.35808 131.22204 L 78.16643 131.22204 L 83.16142 122.50351 L 82.48028 121.32288 L 79.84656 122.82137 L 76.94038 117.82638 L 60.27528 117.82638 C 59.185465 117.82638 58.45892 118.28047 57.91401 119.18865 L 52.782796 128.13423 Z M 76.440885 118.9162 L 79.5287 124.31987 L 81.61751 122.91219 L 81.70833 122.9576 L 77.62152 130.13222 L 69.49331 130.13222 L 69.49331 130.0414 L 71.58212 128.86077 L 65.72436 118.9162 Z M 54.3267 127.72555 L 58.731375 120.09683 C 59.140056 119.4157 59.82119 118.9162 60.593144 118.9162 L 64.589136 118.9162 L 67.17745 123.41169 L 62.09164 132.22104 Z M 66.08763 146.34324 L 55.37111 146.34324 L 57.64156 142.30183 L 60.27528 143.80033 L 61.047234 142.43806 L 56.006835 134.0374 L 46.016855 134.0374 L 45.33572 135.21803 L 47.96944 136.71653 L 45.017857 141.80234 L 53.41852 156.19699 C 53.91802 157.01435 54.644565 157.51385 55.77979 157.51385 L 66.08763 157.51385 Z M 46.28931 141.71152 L 49.42253 136.35326 L 47.15208 135.21803 L 47.15208 135.12721 L 55.3257 135.12721 L 59.50333 142.1202 L 59.41251 142.1656 L 57.323696 140.93956 L 51.64757 150.97495 Z M 64.95241 156.42403 L 56.14306 156.42403 C 55.28029 156.42403 54.599156 156.10617 54.190475 155.37963 L 52.19248 151.92854 L 54.78079 147.43305 L 64.95241 147.43305 Z M 75.21484 136.98898 L 80.5731 146.25242 L 75.986795 146.25242 L 75.986795 143.30083 L 74.35207 143.30083 L 69.58413 151.88313 L 74.35207 160.51084 L 75.986795 160.51084 L 75.986795 157.51385 L 81.79915 157.51385 L 90.06359 143.02838 C 90.33604 142.57429 90.42686 142.02938 90.42686 141.6661 C 90.42686 141.1212 90.29063 140.75793 90.06359 140.34925 L 84.88696 131.40367 Z M 81.29965 156.42403 L 74.89698 156.42403 L 74.89698 159.05776 L 70.991805 151.88313 L 74.89698 144.84474 L 74.89698 147.34223 L 86.47627 147.34223 Z M 84.52369 132.94758 L 88.92836 140.5763 C 89.11 140.84875 89.33704 141.25743 89.33704 141.6661 C 89.33704 142.02938 89.24622 142.43806 89.01918 142.80133 L 87.02118 146.25242 L 81.84456 146.25242 L 76.75875 137.44307 Z" fill="black"/>
      </g>
    </g>
  </g>
</svg>
