<?xml version="1.0" encoding="UTF-8" standalone="no"?>
<!DOCTYPE svg PUBLIC "-//W3C//DTD SVG 1.1//EN" "http://www.w3.org/Graphics/SVG/1.1/DTD/svg11.dtd">
<svg xmlns:xl="http://www.w3.org/1999/xlink" xmlns:dc="http://purl.org/dc/elements/1.1/" version="1.1" xmlns="http://www.w3.org/2000/svg" viewBox="335.68092 334.22262 42.782844 32.273623" width="42.782844" height="32.273623">
  <defs/>
  <g id="Canvas_1" stroke="none" stroke-opacity="1" fill-opacity="1" fill="none" stroke-dasharray="none">
    <title>Canvas 1</title>
    <g id="Canvas_1_Layer_1">
      <title>Layer 1</title>
      <g id="Group_99">
        <g id="Graphic_101">
          <rect x="335.8125" y="337.27225" width="12.68131" height="29.092417" fill="black"/>
          <rect x="335.8125" y="337.27225" width="12.68131" height="29.092417" stroke="black" stroke-linecap="round" stroke-linejoin="round" stroke-width=".2631579"/>
        </g>
        <g id="Graphic_100">
          <path d="M 340.33177 334.2884 L 343.97454 334.2884 C 344.41055 334.2884 344.764 334.64187 344.764 335.0779 L 344.764 337.22873 C 344.764 337.66475 344.41055 338.0182 343.97454 338.0182 L 340.33177 338.0182 C 339.89576 338.0182 339.5423 337.66475 339.5423 337.22873 L 339.5423 335.0779 C 339.5423 334.64187 339.89576 334.2884 340.33177 334.2884 Z" fill="black"/>
          <path d="M 340.33177 334.2884 L 343.97454 334.2884 C 344.41055 334.2884 344.764 334.64187 344.764 335.0779 L 344.764 337.22873 C 344.764 337.66475 344.41055 338.0182 343.97454 338.0182 L 340.33177 338.0182 C 339.89576 338.0182 339.5423 337.66475 339.5423 337.22873 L 339.5423 335.0779 C 339.5423 334.64187 339.89576 334.2884 340.33177 334.2884 Z" stroke="black" stroke-linecap="round" stroke-linejoin="round" stroke-width=".13157895"/>
        </g>
      </g>
      <g id="Group_96">
        <g id="Graphic_98">
          <rect x="350.7317" y="337.27225" width="12.68131" height="29.092417" fill="black"/>
          <rect x="350.7317" y="337.27225" width="12.68131" height="29.092417" stroke="black" stroke-linecap="round" stroke-linejoin="round" stroke-width=".2631579"/>
        </g>
        <g id="Graphic_97">
          <path d="M 355.25096 334.2884 L 358.89373 334.2884 C 359.32974 334.2884 359.6832 334.64187 359.6832 335.0779 L 359.6832 337.22873 C 359.6832 337.66475 359.32974 338.0182 358.89373 338.0182 L 355.25096 338.0182 C 354.81494 338.0182 354.4615 337.66475 354.4615 337.22873 L 354.4615 335.0779 C 354.4615 334.64187 354.81494 334.2884 355.25096 334.2884 Z" fill="black"/>
          <path d="M 355.25096 334.2884 L 358.89373 334.2884 C 359.32974 334.2884 359.6832 334.64187 359.6832 335.0779 L 359.6832 337.22873 C 359.6832 337.66475 359.32974 338.0182 358.89373 338.0182 L 355.25096 338.0182 C 354.81494 338.0182 354.4615 337.66475 354.4615 337.22873 L 354.4615 335.0779 C 354.4615 334.64187 354.81494 334.2884 355.25096 334.2884 Z" stroke="black" stroke-linecap="round" stroke-linejoin="round" stroke-width=".13157895"/>
        </g>
      </g>
      <g id="Group_93">
        <g id="Graphic_95">
          <rect x="365.65088" y="337.27225" width="12.68131" height="29.092417" fill="black"/>
          <rect x="365.65088" y="337.27225" width="12.68131" height="29.092417" stroke="black" stroke-linecap="round" stroke-linejoin="round" stroke-width=".2631579"/>
        </g>
        <g id="Graphic_94">
          <path d="M 370.17015 334.2884 L 373.8129 334.2884 C 374.24893 334.2884 374.6024 334.64187 374.6024 335.0779 L 374.6024 337.22873 C 374.6024 337.66475 374.24893 338.0182 373.8129 338.0182 L 370.17015 338.0182 C 369.73413 338.0182 369.38067 337.66475 369.38067 337.22873 L 369.38067 335.0779 C 369.38067 334.64187 369.73413 334.2884 370.17015 334.2884 Z" fill="black"/>
          <path d="M 370.17015 334.2884 L 373.8129 334.2884 C 374.24893 334.2884 374.6024 334.64187 374.6024 335.0779 L 374.6024 337.22873 C 374.6024 337.66475 374.24893 338.0182 373.8129 338.0182 L 370.17015 338.0182 C 369.73413 338.0182 369.38067 337.66475 369.38067 337.22873 L 369.38067 335.0779 C 369.38067 334.64187 369.73413 334.2884 370.17015 334.2884 Z" stroke="black" stroke-linecap="round" stroke-linejoin="round" stroke-width=".13157895"/>
        </g>
      </g>
      <g id="Graphic_92">
        <title>4</title>
        <path d="M 342.15315 354.67797 L 339.38245 354.67797 L 342.15315 346.77632 Z M 337.3044 357.11603 L 342.44055 357.11603 L 342.44055 361.14295 L 344.7681 361.14295 L 344.7681 357.11603 L 347.0019 357.11603 L 347.0019 354.67797 L 344.92386 354.67797 L 344.7681 341.748 L 342.1408 341.748 L 337.3044 353.88354 Z" fill="white"/>
      </g>
      <g id="Graphic_91">
        <title>,</title>
        <path d="M 345.50997 362.98086 L 345.50997 358.90507 L 347.87208 358.90507 L 347.87208 361.26718 Z" fill="white"/>
      </g>
      <g id="Graphic_90">
        <title>5</title>
        <path d="M 360.19866 345.26154 L 360.19866 347.38496 L 355.52076 347.38496 L 355.52076 351.6318 C 355.7369 351.42536 356.0148 351.2521 356.35445 351.112 C 356.6941 350.9719 357.07234 350.90187 357.4892 350.90187 C 358.292 350.90187 358.94427 351.13412 359.44603 351.59862 C 359.9478 352.06312 360.19866 352.75986 360.19866 353.68886 L 360.19866 357.75875 C 360.19866 358.2896 360.10217 358.76147 359.9092 359.17436 C 359.7162 359.58725 359.4576 359.94115 359.1334 360.23607 C 358.8092 360.531 358.4348 360.75587 358.01024 360.9107 C 357.58567 361.06553 357.1418 361.14295 356.67866 361.14295 C 356.2155 361.14295 355.77164 361.06553 355.3471 360.9107 C 354.9225 360.75587 354.54813 360.531 354.22392 360.23607 C 353.8997 359.94115 353.6411 359.58725 353.44813 359.17436 C 353.25515 358.76147 353.15866 358.2896 353.15866 357.75875 L 353.15866 357.0952 L 355.52076 357.0952 L 355.52076 357.67027 C 355.52076 358.05367 355.6327 358.35227 355.85655 358.5661 C 356.0804 358.7799 356.3699 358.8868 356.72497 358.8868 C 357.08006 358.8868 357.3541 358.7836 357.5471 358.57715 C 357.74006 358.3707 357.83655 358.08316 357.83655 357.7145 L 357.83655 354.02065 C 357.83655 353.711 357.73234 353.44556 357.52392 353.22436 C 357.3155 353.00317 357.0492 352.8926 356.72497 352.8926 C 356.52427 352.8926 356.35445 352.92576 356.2155 352.9921 C 356.07655 353.05847 355.96076 353.1359 355.86813 353.22436 C 355.7755 353.31284 355.70603 353.4087 355.6597 353.5119 C 355.5825 353.64463 355.5362 353.72573 355.52076 353.7552 L 353.43655 353.7552 L 353.43655 345.26154 Z" fill="white"/>
      </g>
      <g id="Graphic_89">
        <title>V</title>
        <path d="M 376.0943 345.39425 L 372.94992 361.14295 L 371.0116 361.14295 L 367.88875 345.39425 L 370.21474 345.39425 L 371.95923 356.38738 L 372.0023 356.38738 L 373.76832 345.39425 Z" fill="white"/>
      </g>
    </g>
  </g>
</svg>
