<?xml version="1.0" encoding="UTF-8" standalone="no"?>
<!DOCTYPE svg PUBLIC "-//W3C//DTD SVG 1.1//EN" "http://www.w3.org/Graphics/SVG/1.1/DTD/svg11.dtd">
<svg xmlns="http://www.w3.org/2000/svg" xmlns:dc="http://purl.org/dc/elements/1.1/" xmlns:xl="http://www.w3.org/1999/xlink" version="1.1" viewBox="54.33755 60.1875 45.409 42.68446" width="45.409" height="42.68446">
  <defs/>
  <g id="Canvas_1" stroke-dasharray="none" fill="none" stroke-opacity="1" stroke="none" fill-opacity="1">
    <title>Canvas 1</title>
    <g id="Canvas_1_Layer_1">
      <title>Layer 1</title>
      <g id="Group_212">
        <g id="Group_188">
          <g id="Graphic_186">
            <path d="M 55.6875 76.5 L 64.6875 77.0625 L 69.1875 84.9375 L 66.375 83.8125 L 60.75 93.9375 L 55.125 84.375 L 57.9375 79.3125 L 55.125 77.625 Z" fill="black"/>
          </g>
          <g id="Graphic_187">
            <path d="M 64.125 89.4375 L 74.8125 89.4375 L 74.8125 99 L 64.6875 99 L 63.5625 98.4375 L 60.75 93.375 Z" fill="black"/>
          </g>
        </g>
        <g id="Graphic_211">
          <path d="M 92.04807 65.17464 L 91.35504 64.125 L 88.48738 65.71695 L 85.50937 60.75 L 74.4155 60.84014 L 80.37151 70.77404 L 77.99098 72.64723 L 87.06093 72.68762 Z" fill="black"/>
        </g>
        <g id="Graphic_210">
          <path d="M 76.62512 66.01298 L 74.90264 61.12139 L 69.11214 61.02584 L 68.0625 61.71887 L 63 70.487375 L 71.28137 75.268625 Z" fill="black"/>
        </g>
        <g id="Graphic_200">
          <path d="M 83.94848 102.41202 L 85.20401 102.33666 L 85.25918 99.05721 L 91.04968 98.96166 L 96.51855 89.30901 L 84.93754 89.50012 L 84.50557 86.50192 L 79.93562 94.33654 Z" fill="black"/>
        </g>
        <g id="Graphic_207">
          <path d="M 90.93393 88.63618 L 96.03141 89.59026 L 99.00941 84.62332 L 98.93405 83.36779 L 93.87155 74.59928 L 85.59018 79.38053 Z" fill="black"/>
        </g>
        <g id="Graphic_183">
          <title>G</title>
          <path d="M 71.77461 76.08065 L 77.13287 66.817214 L 79.49414 70.7678 L 76.86042 72.3117 L 77.67778 73.583155 L 87.48612 73.583155 L 92.48111 64.86463 L 91.79998 63.68399 L 89.16626 65.18249 L 86.26008 60.1875 L 69.59498 60.1875 C 68.50516 60.1875 67.77862 60.64159 67.23371 61.54977 L 62.10249 70.49534 Z M 85.76058 61.277316 L 88.84839 66.68099 L 90.93721 65.27331 L 91.02803 65.31872 L 86.94122 72.49334 L 78.813 72.49334 L 78.813 72.40252 L 80.90182 71.22189 L 75.04406 61.277316 Z M 63.6464 70.08666 L 68.05107 62.45795 C 68.45975 61.776815 69.14089 61.277316 69.91284 61.277316 L 73.90883 61.277316 L 76.497145 65.77281 L 71.41134 74.58215 Z M 75.40733 88.70435 L 64.690805 88.70435 L 66.961255 84.66295 L 69.59498 86.16145 L 70.36693 84.79918 L 65.32653 76.39851 L 55.33655 76.39851 L 54.655416 77.57915 L 57.28914 79.07764 L 54.33755 84.16345 L 62.73822 98.5581 C 63.23772 99.37547 63.96426 99.87497 65.09949 99.87497 L 75.40733 99.87497 Z M 55.609005 84.07263 L 58.742226 78.71437 L 56.471776 77.57915 L 56.471776 77.48833 L 64.6454 77.48833 L 68.823024 84.48131 L 68.73221 84.52672 L 66.64339 83.30068 L 60.96727 93.33607 Z M 74.2721 98.78515 L 65.46276 98.78515 C 64.59999 98.78515 63.91885 98.46729 63.51017 97.74074 L 61.512175 94.28966 L 64.10049 89.79417 L 74.2721 89.79417 Z M 84.53454 79.3501 L 89.8928 88.61353 L 85.30649 88.61353 L 85.30649 85.66195 L 83.67177 85.66195 L 78.90382 94.24425 L 83.67177 102.87196 L 85.30649 102.87196 L 85.30649 99.87497 L 91.11884 99.87497 L 99.38328 85.3895 C 99.65574 84.9354 99.74655 84.3905 99.74655 84.02722 C 99.74655 83.48232 99.61033 83.119045 99.38328 82.71036 L 94.20666 73.76479 Z M 90.61934 98.78515 L 84.21668 98.78515 L 84.21668 101.41887 L 80.3115 94.24425 L 84.21668 87.20586 L 84.21668 89.70335 L 95.79597 89.70335 Z M 93.84338 75.3087 L 98.24806 82.93741 C 98.42969 83.20986 98.65674 83.61854 98.65674 84.02722 C 98.65674 84.3905 98.56592 84.79918 98.33887 85.16245 L 96.34088 88.61353 L 91.16425 88.61353 L 86.07844 79.80419 Z" fill="black"/>
        </g>
      </g>
    </g>
  </g>
</svg>
