<?xml version="1.0" encoding="UTF-8" standalone="no"?>
<!DOCTYPE svg PUBLIC "-//W3C//DTD SVG 1.1//EN" "http://www.w3.org/Graphics/SVG/1.1/DTD/svg11.dtd">
<svg xmlns="http://www.w3.org/2000/svg" xmlns:dc="http://purl.org/dc/elements/1.1/" xmlns:xl="http://www.w3.org/1999/xlink" version="1.1" viewBox="329.0625 97.30469 39.9375 39.9375" width="39.9375" height="39.9375">
  <defs/>
  <g id="Canvas_1" stroke-dasharray="none" fill="none" stroke-opacity="1" stroke="none" fill-opacity="1">
    <title>Canvas 1</title>
    <g id="Canvas_1_Layer_1">
      <title>Layer 1</title>
      <g id="Graphic_170">
        <circle cx="348.75" cy="117.27344" r="18.8437801104638" fill="white"/>
      </g>
      <g id="Graphic_160">
        <title>y</title>
        <path d="M 329.0625 117.27344 C 329.0625 111.75823 330.95766 107.05136 334.74805 103.15268 C 338.53843 99.254 343.11456 97.30469 348.47656 97.30469 C 353.83857 97.30469 358.4147 99.254 362.20508 103.15268 C 365.99546 107.05136 367.89062 111.75823 367.89062 117.27344 C 367.89062 122.78864 365.99546 127.49552 362.20508 131.3942 C 358.4147 135.29288 353.83857 137.24219 348.47656 137.24219 C 343.11456 137.24219 338.53843 135.29288 334.74805 131.3942 C 330.95766 127.49552 329.0625 122.78864 329.0625 117.27344 Z M 349.03125 99.75799 C 346.9604 99.75799 345.0375 100.05276 343.2625 100.64232 C 341.4875 101.23188 339.84193 102.19227 338.3258 103.52353 C 337.66015 104.17014 337.1702 104.92134 336.85586 105.77714 C 336.54153 106.63295 336.38438 107.3271 336.38438 107.8596 C 336.38438 108.84853 336.4491 109.69482 336.5785 110.39848 C 336.70794 111.10215 336.95755 111.98647 337.32734 113.05147 C 337.47526 113.27969 337.63242 113.51741 337.79883 113.76464 C 337.96524 114.01188 338.15937 114.23058 338.38125 114.42076 L 337.4383 111.1687 C 337.2164 110.29388 337.10547 109.43808 337.10547 108.6013 C 337.10547 107.84058 337.2164 107.1179 337.4383 106.43326 C 337.7711 105.102 338.41822 104.09407 339.3797 103.40942 C 340.34115 102.72477 341.33033 102.20179 342.34727 101.84045 C 343.3642 101.4791 344.47356 101.16531 345.6754 100.89906 C 346.8772 100.63281 347.95885 100.49969 348.9203 100.49969 C 349.6229 100.49969 350.5104 100.57576 351.5828 100.7279 C 352.6552 100.88005 353.68138 101.16531 354.66133 101.5837 C 355.6413 102.0021 356.46406 102.68674 357.1297 103.63763 C 357.8323 104.05603 358.37773 104.64558 358.766 105.4063 C 359.1543 106.16701 359.4409 107.07986 359.6258 108.14487 C 359.7737 108.7154 359.84766 109.34299 359.84766 110.02763 C 359.84766 110.56014 359.78294 111.24477 359.6535 112.08156 C 359.5241 112.91835 359.4224 113.56495 359.34844 114.02138 C 359.71823 113.64102 359.94935 113.33674 360.0418 113.10853 C 360.13425 112.88031 360.2082 112.61406 360.26367 112.30978 C 360.31914 112.00549 360.36536 111.77728 360.40234 111.62513 L 360.40234 109.91353 C 360.40234 109.64728 360.38385 109.3525 360.34688 109.0292 C 360.3099 108.70589 360.26367 108.29701 360.2082 107.80254 C 360.15273 107.30808 359.99557 106.71853 359.7367 106.03388 C 359.47786 105.34924 359.20052 104.81674 358.9047 104.43638 C 358.60885 104.05602 358.34076 103.77076 358.1004 103.58058 C 357.86002 103.3904 357.6104 103.18121 357.35156 102.95299 C 357.0927 102.57263 356.79688 102.26835 356.46406 102.04013 C 356.2422 101.81192 355.92787 101.58371 355.5211 101.35549 C 355.1143 101.12728 354.3655 100.80398 353.2746 100.38558 C 352.1837 99.96719 350.7693 99.75799 349.03125 99.75799 Z M 352.91406 109.22888 C 353.69063 108.88656 354.2823 108.6108 354.68906 108.40161 C 355.09584 108.19241 355.55807 107.8596 356.0758 107.40317 C 356.0758 108.50621 356.1405 109.3525 356.26992 109.94205 C 356.39935 110.53161 356.5935 111.08312 356.85234 111.59661 C 357.1112 112.11009 357.37005 112.59504 357.6289 113.05147 L 357.7953 113.56496 L 358.35 113.56496 C 358.35 113.2987 358.29453 113.01344 358.1836 112.70915 L 357.01875 109.5712 L 356.85234 108.82951 L 356.79688 107.8596 C 356.79688 107.17495 356.79688 106.4713 356.79688 105.74862 C 356.575 105.97683 356.3439 106.20504 356.1035 106.43326 C 355.86315 106.66147 355.4194 106.99428 354.77227 107.4317 C 354.12513 107.86911 353.77383 108.10683 353.71836 108.14487 C 353.6629 108.1829 353.20066 108.37308 352.33164 108.7154 C 351.46263 109.05772 350.5474 109.22888 349.58594 109.22888 C 349.2901 109.22888 349.06823 109.20987 348.9203 109.17183 L 348.9758 108.77246 C 348.64297 108.69638 348.28242 108.65835 347.89414 108.65835 C 347.50586 108.65835 347.2008 108.65835 346.9789 108.65835 L 344.98203 108.65835 C 344.61224 108.65835 344.2147 108.69638 343.78945 108.77246 C 343.3642 108.84853 342.87422 108.96263 342.31953 109.11478 C 341.76484 109.26692 341.24714 109.42857 340.7664 109.59973 C 340.28567 109.7709 339.76797 109.97058 339.2133 110.1988 C 338.6586 110.42701 338.38125 110.67424 338.38125 110.94049 C 338.38125 111.35889 338.3905 111.75826 338.409 112.13862 C 338.42747 112.51898 338.4922 112.95638 338.60312 113.45085 L 339.10234 113.45085 C 339.06536 112.88031 339.04687 112.4429 339.04687 112.13862 C 339.04687 111.60611 339.08385 111.2638 339.1578 111.11165 C 339.23177 110.95951 339.3427 110.85491 339.49062 110.79786 C 339.63854 110.7408 339.74948 110.69326 339.82344 110.65522 L 342.2086 109.85647 C 342.5784 109.7804 343.0591 109.71384 343.6508 109.65679 C 344.24245 109.59973 344.72318 109.54268 345.09297 109.48562 C 345.46276 109.42857 345.86953 109.40004 346.3133 109.40004 C 346.57214 109.40004 346.75703 109.41906 346.86797 109.4571 C 346.90495 109.5712 346.84024 109.65679 346.67383 109.71384 C 346.50742 109.77089 346.40573 109.81844 346.36875 109.85647 C 346.6646 109.85647 347.07135 109.86598 347.58906 109.885 C 348.10677 109.90402 348.7724 109.91353 349.58594 109.91353 C 350.6953 109.91353 351.8047 109.68531 352.91406 109.22888 Z M 348.5875 117.33049 C 347.81093 117.33049 346.78477 117.50165 345.509 117.84397 C 344.2332 118.1863 343.49362 118.37647 343.29023 118.41451 C 343.08685 118.45254 342.80026 118.47156 342.43047 118.47156 C 342.2086 118.47156 341.89427 118.37647 341.4875 118.1863 C 341.08073 117.99612 340.48907 117.47313 339.7125 116.61732 C 338.93593 115.76151 338.1039 114.668 337.2164 113.33674 L 337.05 114.13549 C 337.71563 115.04835 338.29804 115.90415 338.79727 116.7029 C 339.2965 117.50166 339.74948 118.37647 340.15625 119.32737 L 340.9883 121.72362 C 341.1362 122.18005 341.34883 122.95977 341.62617 124.06281 C 341.9035 125.16585 342.09766 126.02165 342.2086 126.63022 L 339.1578 127.71424 L 339.3797 128.34183 C 340.0453 128.15165 340.6647 127.98049 341.2379 127.82835 C 341.81107 127.6762 342.2086 127.58112 342.43047 127.54308 C 342.65234 128.34183 342.8465 128.99794 343.0129 129.51143 C 343.1793 130.02491 343.3457 130.45281 343.5121 130.79513 C 343.6785 131.13746 343.82643 131.36567 343.95586 131.47978 C 344.0853 131.59388 344.2702 131.70799 344.51055 131.8221 C 344.7509 131.9362 345.00976 132.02179 345.2871 132.07884 C 345.56445 132.1359 346.40572 132.22147 347.81094 132.33558 C 348.47657 132.33558 349.1237 132.32607 349.75234 132.30705 C 350.381 132.28804 351.05586 132.18344 351.77695 131.99326 C 352.49805 131.80308 352.95104 131.65094 353.13594 131.53683 L 353.46875 131.13746 C 353.7276 130.7571 353.92174 130.38625 354.05117 130.02491 C 354.1806 129.66357 354.4302 128.77925 354.8 127.37192 L 355.74297 127.60013 L 357.68438 128.28478 L 357.8508 127.65719 L 355.07734 126.51612 C 355.37318 125.337 355.6875 124.1484 356.0203 122.95027 C 356.35313 121.75214 356.7599 120.6301 357.24062 119.58411 C 357.72136 118.53812 358.25755 117.55871 358.8492 116.64585 C 359.4409 115.73299 359.99557 114.85817 360.5133 114.02138 C 360.40234 113.79317 360.3099 113.56496 360.23594 113.33674 C 359.53333 114.47782 358.84922 115.44772 358.1836 116.24647 C 357.51797 117.04523 356.9448 117.60625 356.46406 117.92955 C 355.98333 118.25286 355.54883 118.46205 355.16055 118.55714 C 354.77226 118.65223 354.39323 118.69978 354.02344 118.69978 C 353.61666 118.69978 353.1914 118.64272 352.74766 118.52862 C 351.82317 118.18629 351.02813 117.90103 350.3625 117.67281 C 349.69687 117.4446 349.1052 117.33049 348.5875 117.33049 Z M 335.1086 116.81701 C 335.1086 118.1863 335.31198 119.48901 335.71875 120.72518 C 336.12552 121.96135 336.60625 122.90272 337.16094 123.54933 C 337.71563 124.19594 338.1224 124.51924 338.38125 124.51924 L 338.4922 124.63335 C 338.6771 125.58425 338.88047 126.51611 339.10234 127.42897 L 339.65703 127.20076 C 339.5461 126.13575 339.3612 125.07076 339.10234 124.00576 L 338.9914 123.54933 C 338.32578 123.39719 337.9375 123.18799 337.82656 122.92174 C 336.8281 121.24816 336.2642 119.8979 336.13477 118.87094 C 336.00534 117.84397 335.94062 117.14031 335.94062 116.75996 C 335.94062 116.3796 335.9591 116.09433 335.9961 115.90415 L 336.38438 115.33362 L 337.27188 114.9913 L 336.82812 114.30665 C 336.23646 114.30665 335.80195 114.5729 335.5246 115.1054 C 335.24726 115.6379 335.1086 116.20843 335.1086 116.81701 Z M 348.5875 136.15817 L 349.3086 136.15817 C 349.8263 136.15817 350.30703 136.13915 350.7508 136.10112 C 351.19453 136.06308 351.6198 135.95848 352.02656 135.78732 C 352.43334 135.61616 352.91406 135.27384 353.46875 134.76036 C 354.02344 134.24687 354.55963 133.64782 355.07734 132.96317 C 355.59505 132.27852 356.06653 131.59389 356.4918 130.90924 C 356.91706 130.2246 357.2776 129.4829 357.57344 128.68415 L 356.9633 128.45594 C 356.29765 129.82523 355.7245 130.89022 355.24375 131.65094 C 354.763 132.41166 354.0789 133.26745 353.1914 134.21835 L 352.02656 135.07415 C 351.73073 135.26433 351.4349 135.35942 351.13906 135.35942 C 349.95572 135.47353 348.9203 135.53058 348.0328 135.53058 C 347.1453 135.53058 346.36875 135.445 345.70312 135.27384 C 345.0375 135.10268 344.17774 134.42755 343.12383 133.24844 C 342.0699 132.06932 341.06224 130.49086 340.1008 128.51299 L 339.43516 128.7412 C 340.17474 130.30068 340.92356 131.60339 341.68164 132.64937 C 342.4397 133.69536 343.1978 134.4846 343.95586 135.0171 C 344.71394 135.5496 345.39804 135.8729 346.0082 135.98701 C 346.61836 136.10112 347.1638 136.15817 347.64453 136.15817 Z M 361.84453 116.87406 C 361.84453 116.26549 361.77057 115.7425 361.62266 115.30509 C 361.47474 114.86768 361.1974 114.53487 360.79062 114.30665 L 360.2914 115.1054 C 360.77214 115.29558 361.0125 115.73299 361.0125 116.41763 C 361.0125 117.14032 360.994 117.67281 360.95703 118.01513 C 360.92005 118.35746 360.79063 118.8329 360.56875 119.44147 C 360.2729 120.46844 360.03255 121.21964 359.84766 121.69509 C 359.66276 122.17054 359.43164 122.55089 359.1543 122.83616 C 358.87695 123.12143 358.6366 123.29259 358.4332 123.34964 C 358.2298 123.4067 358.07266 123.43522 357.9617 123.43522 C 357.88776 124.19594 357.78607 124.89009 357.65664 125.51768 C 357.5272 126.14527 357.4255 126.64924 357.35156 127.0296 L 357.9617 127.31487 C 358.07266 126.9345 358.1651 126.47808 358.23906 125.94558 C 358.313 125.41308 358.387 124.97567 358.46094 124.63335 L 358.57187 124.51924 C 358.8677 124.44317 359.12656 124.29103 359.34844 124.06281 C 359.5703 123.8346 359.8754 123.34014 360.26367 122.57942 C 360.65196 121.8187 361.0125 120.9534 361.3453 119.98348 C 361.67813 119.01357 361.84453 117.9771 361.84453 116.87406 Z M 348.53203 119.1562 C 348.71693 119.1562 349.06823 119.23228 349.58594 119.38442 L 351.9711 120.24022 C 352.3409 120.39237 352.79388 120.50647 353.33008 120.58254 C 353.86628 120.65862 354.31002 120.72518 354.66133 120.78223 C 355.01263 120.83929 355.1883 120.98192 355.1883 121.21013 C 355.1883 121.32424 355.0034 122.09446 354.6336 123.5208 C 354.2638 124.94715 353.7646 126.89646 353.13594 129.3688 C 353.09896 129.67308 352.72917 129.93933 352.02656 130.16754 C 351.32395 130.39576 350.5474 130.50987 349.69688 130.50987 L 348.53203 130.50987 C 347.7185 130.50987 347.07136 130.49085 346.59062 130.45281 C 346.1099 130.41478 345.5737 130.28165 344.98203 130.05344 L 344.26094 129.53996 C 344.18698 129.42585 344.05755 129.08353 343.87266 128.51299 L 342.15312 120.92487 C 342.0422 120.62058 342.09766 120.4304 342.31953 120.35433 C 342.5414 120.27826 342.8927 120.2212 343.37344 120.18317 C 343.85417 120.14513 344.20547 120.1071 344.42734 120.06906 L 347.3672 119.32737 C 347.77396 119.13719 348.16224 119.08013 348.53203 119.1562 Z" fill="blue"/>
      </g>
    </g>
  </g>
</svg>
