<?xml version="1.0" encoding="UTF-8" standalone="no"?>
<!DOCTYPE svg PUBLIC "-//W3C//DTD SVG 1.1//EN" "http://www.w3.org/Graphics/SVG/1.1/DTD/svg11.dtd">
<svg xmlns:dc="http://purl.org/dc/elements/1.1/" xmlns="http://www.w3.org/2000/svg" xmlns:xl="http://www.w3.org/1999/xlink" version="1.1" viewBox="54.28075 177.11125 39.9375 39.9375" width="39.9375" height="39.9375">
  <defs/>
  <g id="Canvas_1" stroke-dasharray="none" stroke="none" fill-opacity="1" fill="none" stroke-opacity="1">
    <title>Canvas 1</title>
    <g id="Canvas_1_Layer_1">
      <title>Layer 1</title>
      <g id="Graphic_120">
        <circle cx="74.2495" cy="197.08" r="19.9687819081035" fill="blue"/>
      </g>
      <g id="Graphic_118">
        <title>!</title>
        <path d="M 74.27224 182.05768 C 75.72565 182.05768 76.65673 182.44374 77.065505 183.21586 C 77.47428 183.98799 77.7695 184.80552 77.951175 185.66849 L 76.24796 200.99739 C 76.11171 201.40616 75.91868 201.81492 75.66887 202.2237 C 75.41907 202.63247 74.93082 202.83685 74.20411 202.83685 C 73.56824 202.83685 73.12541 202.63247 72.87561 202.2237 C 72.6258 201.81492 72.41006 201.38345 72.22839 200.92926 L 70.5933 185.73661 C 70.68414 184.91907 70.92259 184.10154 71.30865 183.284 C 71.694715 182.46645 72.68257 182.05768 74.27224 182.05768 Z M 70.72956 208.49151 C 70.72956 207.4923 71.08155 206.6407 71.78555 205.9367 C 72.48955 205.2327 73.341145 204.8807 74.34037 204.8807 C 75.33959 204.8807 76.20254 205.22135 76.92925 205.90263 C 77.655955 206.58392 78.0193 207.44687 78.0193 208.49151 C 78.0193 209.44532 77.655955 210.28556 76.92925 211.01227 C 76.20254 211.73897 75.33959 212.10232 74.34037 212.10232 C 73.29573 212.10232 72.432774 211.76168 71.75149 211.0804 C 71.0702 210.3991 70.72956 209.53616 70.72956 208.49151 Z" fill="white"/>
      </g>
    </g>
  </g>
</svg>
