<?xml version="1.0" encoding="UTF-8" standalone="no"?>
<!DOCTYPE svg PUBLIC "-//W3C//DTD SVG 1.1//EN" "http://www.w3.org/Graphics/SVG/1.1/DTD/svg11.dtd">
<svg xmlns="http://www.w3.org/2000/svg" xmlns:dc="http://purl.org/dc/elements/1.1/" xmlns:xl="http://www.w3.org/1999/xlink" version="1.1" viewBox="288 54.8375 39.9375 38.828125" width="39.9375" height="38.828125">
  <defs/>
  <g id="Canvas_1" stroke-dasharray="none" fill="none" stroke-opacity="1" stroke="none" fill-opacity="1">
    <title>Canvas 1</title>
    <g id="Canvas_1_Layer_1">
      <title>Layer 1</title>
      <g id="Graphic_172">
        <circle cx="307.54688" cy="74.25156" r="18.8437801104638" fill="white"/>
      </g>
      <g id="Graphic_162">
        <title>u</title>
        <path d="M 288 74.25156 C 288 68.926536 289.88592 64.359654 293.6578 60.55078 C 297.4297 56.74191 301.9966 54.8375 307.3586 54.8375 C 312.75758 54.8375 317.34295 56.72342 321.11484 60.49531 C 324.88674 64.26721 326.77266 68.85258 326.77266 74.25156 C 326.77266 79.57659 324.88674 84.14347 321.11484 87.95234 C 317.34295 91.76122 312.75758 93.66562 307.3586 93.66562 C 301.9966 93.66562 297.4297 91.77971 293.6578 88.00781 C 289.88592 84.23592 288 79.65055 288 74.25156 Z M 306.36016 71.478125 C 306.54505 71.21927 306.85937 71.08984 307.30312 71.08984 C 307.45104 71.08984 307.58047 71.09909 307.6914 71.11758 C 307.80234 71.13607 307.8948 71.1638 307.96875 71.20078 C 307.74687 70.978905 307.03503 70.43347 305.8332 69.56445 C 304.63137 68.69544 303.7716 68.09453 303.2539 67.76172 L 301.36797 66.65234 L 300.64687 66.375 L 299.7039 66.375 C 299.44505 66.375 299.1677 66.35651 298.87187 66.31953 C 298.57604 66.28255 298.35417 66.26406 298.20625 66.26406 L 297.09687 66.04219 L 295.71016 65.4875 L 294.65625 64.821875 L 293.93516 64.378125 L 291.60547 68.03906 C 292.9737 68.81563 294.12005 69.62916 295.04453 70.47969 C 295.969 71.33021 296.5884 72.11601 296.90273 72.83711 C 297.21706 73.55821 297.46667 73.99271 297.65156 74.140625 C 297.79948 74.3625 298.12304 74.58437 298.62227 74.80625 C 299.1215 75.02813 299.85182 75.26849 300.81328 75.52734 C 301.77474 75.7862 302.93958 76.04505 304.3078 76.30391 L 306.74844 76.69219 C 306.9703 76.39635 307.26614 76.28542 307.63594 76.359375 L 309.1336 76.52578 C 309.20755 76.04505 309.07813 75.65677 308.7453 75.36094 C 308.4125 75.0651 308.00573 74.86172 307.525 74.75078 L 303.75312 73.86328 L 301.81172 73.36406 L 301.09062 73.08672 L 300.81328 72.809375 C 300.5914 72.47656 300.53594 72.14375 300.64687 71.81094 C 300.90573 71.367185 301.1091 71.089844 301.25703 70.97891 C 301.40495 70.86797 301.62682 70.8125 301.92266 70.8125 C 302.1815 70.8125 302.44036 70.86797 302.69922 70.97891 C 302.95807 71.089844 303.2909 71.25625 303.69766 71.478125 C 304.10443 71.7 304.43724 71.884895 304.6961 72.03281 L 306.24922 72.97578 C 306.13828 72.67995 306.0828 72.45807 306.0828 72.31016 C 306.0828 72.0513 306.17526 71.77396 306.36016 71.478125 Z M 301.81172 75.915625 C 301.44193 75.87865 300.92422 75.76771 300.2586 75.58281 C 299.59297 75.39792 299.11224 75.23151 298.8164 75.08359 C 298.89036 75.23151 299.02904 75.40716 299.23242 75.61055 C 299.4358 75.81393 299.65768 75.99883 299.89805 76.16523 C 300.1384 76.33164 300.4065 76.377865 300.70234 76.30391 Z M 307.3586 71.25625 C 307.09974 71.29323 306.8409 71.36719 306.58203 71.478125 C 306.32318 71.58906 306.19375 71.8664 306.19375 72.31016 C 306.19375 72.49505 306.31393 72.70768 306.5543 72.94805 C 306.79466 73.18841 307.06276 73.30859 307.3586 73.30859 C 308.0612 73.30859 308.4125 72.957295 308.4125 72.25469 C 308.4125 72.10677 308.3478 71.90339 308.21836 71.64453 C 308.08893 71.38568 307.80235 71.25625 307.3586 71.25625 Z M 305.86094 72.97578 C 305.67604 72.82786 305.47266 72.69844 305.25078 72.5875 C 305.0289 72.47656 304.78854 72.42109 304.5297 72.42109 C 304.1599 72.42109 303.81784 72.541275 303.5035 72.78164 C 303.1892 73.02201 302.99505 73.25312 302.9211 73.475 L 304.6961 73.91875 L 304.97344 73.86328 C 305.15833 73.75234 305.34323 73.61367 305.52812 73.44727 C 305.71302 73.28086 305.82396 73.1237 305.86094 72.97578 Z M 309.18906 76.74766 C 308.9302 76.6737 308.5974 76.61823 308.19062 76.58125 C 307.78385 76.54427 307.45104 76.54427 307.1922 76.58125 L 307.02578 76.69219 L 309.1336 76.96953 Z M 311.13047 75.915625 L 311.13047 74.584375 L 310.63125 74.25156 L 310.24297 74.140625 C 309.7992 74.140625 309.57734 74.30703 309.57734 74.63984 C 309.57734 74.82474 309.61432 74.95417 309.68828 75.028125 C 309.76224 75.10208 309.8177 75.15755 309.8547 75.19453 Z M 311.9625 78.74453 L 311.9625 86.67656 L 318.78516 86.67656 L 318.78516 62.27031 L 311.9625 62.27031 L 311.9625 71.75547 C 311.5927 71.79245 311.4078 71.884895 311.4078 72.03281 L 311.4078 78.41172 C 311.55573 78.633595 311.74062 78.74453 311.9625 78.74453 Z" fill="blue"/>
      </g>
    </g>
  </g>
</svg>
