<?xml version="1.0" encoding="UTF-8" standalone="no"?>
<!DOCTYPE svg PUBLIC "-//W3C//DTD SVG 1.1//EN" "http://www.w3.org/Graphics/SVG/1.1/DTD/svg11.dtd">
<svg xmlns="http://www.w3.org/2000/svg" xmlns:dc="http://purl.org/dc/elements/1.1/" xmlns:xl="http://www.w3.org/1999/xlink" version="1.1" viewBox="288 97.30469 39.9375 39.9375" width="39.9375" height="39.9375">
  <defs/>
  <g id="Canvas_1" stroke-dasharray="none" fill="none" stroke-opacity="1" stroke="none" fill-opacity="1">
    <title>Canvas 1</title>
    <g id="Canvas_1_Layer_1">
      <title>Layer 1</title>
      <g id="Graphic_169">
        <circle cx="307.54688" cy="117.27344" r="18.8437801104638" fill="white"/>
      </g>
      <g id="Graphic_158">
        <title>l</title>
        <path d="M 288 117.27344 C 288 111.79627 289.88592 107.0989 293.6578 103.1812 C 297.4297 99.26351 302.01508 97.30469 307.41406 97.30469 C 312.77607 97.30469 317.3522 99.254 321.14258 103.15268 C 324.93296 107.05136 326.82813 111.75823 326.82813 117.27344 C 326.82813 122.78864 324.93296 127.49552 321.14258 131.3942 C 317.3522 135.29288 312.77607 137.24219 307.41406 137.24219 C 302.01508 137.24219 297.4297 135.30239 293.6578 131.42272 C 289.88592 127.54306 288 122.82668 288 117.27344 Z M 316.28906 114.53487 C 316.62188 114.5729 316.84375 114.4588 316.9547 114.19254 C 317.06563 113.9263 317.1211 113.27969 317.1211 112.25272 C 317.1211 111.56808 317.0841 111.06411 317.01016 110.7408 C 316.9362 110.4175 316.88073 110.11322 316.84375 109.82795 C 316.80677 109.54268 316.7698 109.32397 316.7328 109.17183 C 316.69583 109.01969 316.5479 108.66786 316.28906 108.11634 C 316.0302 107.56482 315.78984 107.20348 315.56797 107.03232 C 315.3461 106.86116 315.11498 106.65197 314.8746 106.40473 C 314.63424 106.1575 314.4216 105.91978 314.23672 105.69156 C 314.05182 105.46335 313.25678 105.06398 311.85156 104.49344 C 310.44635 103.9229 309.09662 103.63763 307.80234 103.63763 C 306.2862 103.78978 304.92722 104.0275 303.7254 104.3508 C 302.52356 104.67411 301.4142 105.16857 300.39727 105.8342 C 299.38033 106.49982 298.68698 107.19397 298.3172 107.91665 C 297.9474 108.63933 297.7625 109.55218 297.7625 110.65522 C 297.79948 111.22576 297.81797 111.54906 297.81797 111.62513 L 298.4836 114.47781 L 299.14922 114.47781 L 298.76094 112.6521 C 298.68698 112.42388 298.6315 112.15764 298.59453 111.85335 C 298.55755 111.54906 298.53906 111.16871 298.53906 110.71228 C 298.53906 109.83745 298.67773 109.04822 298.95508 108.34455 C 299.23242 107.64089 299.85182 106.97527 300.81328 106.34768 C 301.77474 105.72009 302.9211 105.23514 304.25234 104.89281 C 305.5836 104.55049 306.8039 104.37933 307.91328 104.37933 C 308.83777 104.37933 309.64205 104.44589 310.32617 104.57902 C 311.0103 104.71214 311.72213 104.95937 312.46172 105.32071 C 313.2013 105.68206 313.7375 106.03388 314.0703 106.3762 C 314.14427 106.64246 314.40312 106.9087 314.84688 107.17496 C 315.29063 107.44121 315.60495 107.83107 315.78984 108.34455 C 315.97474 108.85804 316.1134 109.28594 316.20586 109.62826 C 316.2983 109.97058 316.37227 110.40799 316.42773 110.94049 C 316.4832 111.473 316.51094 111.9104 316.51094 112.25272 C 316.51094 112.59505 316.51094 112.93736 316.51094 113.27969 C 316.4 113.81219 316.32604 114.23058 316.28906 114.53487 Z M 313.62656 109.91353 C 313.5896 110.21781 313.5711 110.46504 313.5711 110.65522 C 313.5711 111.2638 313.6173 111.77727 313.70977 112.19567 C 313.8022 112.61406 314.01484 113.10852 314.34766 113.67906 L 314.625 114.3637 C 314.66198 114.47781 314.7267 114.55388 314.81914 114.59192 C 314.9116 114.62996 314.9763 114.64897 315.0133 114.64897 C 315.23516 114.49683 315.3461 114.34469 315.3461 114.19254 L 314.625 112.42388 C 314.32917 112.00549 314.18125 111.28282 314.18125 110.25585 C 314.18125 109.5712 314.2367 108.90558 314.34766 108.25897 C 313.64505 109.09576 312.6651 109.80893 311.4078 110.39848 C 310.1505 110.98804 308.9487 111.28281 307.80234 111.28281 L 308.13516 110.76933 C 307.80234 110.7313 307.41406 110.70277 306.9703 110.68375 C 306.52656 110.66473 306.00886 110.65522 305.4172 110.65522 C 305.08437 110.65522 304.77005 110.65522 304.47422 110.65522 C 304.10443 110.7313 303.6884 110.81687 303.22617 110.91196 C 302.76393 111.00705 302.0983 111.17821 301.2293 111.42545 C 300.3603 111.67268 299.75938 111.9104 299.42656 112.13862 L 299.42656 114.3637 C 299.61146 114.47781 299.81484 114.49683 300.03672 114.42076 L 300.0922 112.6521 C 300.35104 112.49995 300.89648 112.26223 301.7285 111.93893 C 302.56055 111.61562 304.06744 111.45397 306.24922 111.45397 L 305.5836 111.85335 L 308.19062 111.85335 C 309.22605 111.85335 310.206 111.72022 311.13047 111.45397 C 312.05495 111.18772 312.88698 110.67424 313.62656 109.91353 Z M 316.34453 116.64585 L 316.34453 115.21951 L 308.7453 115.21951 C 308.67135 115.33362 308.5327 115.48576 308.3293 115.67594 C 308.1259 115.86612 307.82084 115.9612 307.41406 115.9612 C 307.1552 115.9612 306.85938 115.82808 306.52656 115.56183 C 306.19375 115.29558 306.00885 115.16246 305.97188 115.16246 L 298.4836 115.16246 L 298.4836 116.53174 C 298.55755 116.64585 298.67773 116.74094 298.84414 116.81701 C 299.01055 116.89308 299.13073 117.04522 299.2047 117.27344 L 299.7039 119.61263 C 299.81484 119.91692 299.96276 120.2117 300.14766 120.49696 C 300.33255 120.78223 300.6561 120.95339 301.11836 121.01045 C 301.5806 121.0675 302.00586 121.10554 302.39414 121.12455 C 302.78242 121.14357 303.05052 121.15308 303.19844 121.15308 C 303.8271 121.15308 304.37252 121.09603 304.83477 120.98192 C 305.297 120.86781 305.6483 120.54451 305.88867 120.01201 C 306.12904 119.4795 306.3509 118.97554 306.5543 118.50009 C 306.7577 118.02464 306.91484 117.77741 307.02578 117.75839 C 307.13672 117.73937 307.22917 117.72987 307.30313 117.72987 C 307.41406 117.72987 307.525 117.78692 307.63594 117.90103 C 307.74688 118.01513 307.8578 118.11022 307.96875 118.1863 L 308.85625 120.12612 C 309.00417 120.39237 309.2168 120.65861 309.49414 120.92487 C 309.7715 121.19112 310.29843 121.32424 311.075 121.32424 L 313.34922 121.21013 C 314.4586 120.98192 315.10573 120.27826 315.29063 119.09915 L 315.56797 117.27344 C 315.7159 117.1213 315.82682 117.04522 315.9008 117.04522 C 315.97474 117.00719 316.05794 116.94063 316.1504 116.84554 C 316.24284 116.75045 316.30755 116.68388 316.34453 116.64585 Z M 317.39844 117.33049 C 317.39844 118.88996 317.1211 120.14513 316.5664 121.09603 C 316.0117 122.04692 315.6142 122.53187 315.37383 122.5509 C 315.13346 122.56991 314.9763 122.67451 314.90234 122.86469 L 314.51406 124.63335 C 314.0703 126.23086 313.6358 127.42897 313.21055 128.22772 C 312.7853 129.02648 311.9625 130.05343 310.7422 131.30862 C 310.22448 131.91719 309.55886 132.22147 308.7453 132.22147 L 305.75 132.10737 C 305.12135 132.10737 304.54818 131.90768 304.03047 131.5083 C 303.51276 131.10893 302.94883 130.48134 302.33867 129.62554 C 301.7285 128.76973 301.294 128.06607 301.03516 127.51455 C 300.7763 126.96303 300.60065 126.53514 300.5082 126.23085 C 300.41575 125.92656 300.35104 125.66031 300.31406 125.4321 L 299.81484 122.75058 C 299.77786 122.5604 299.66693 122.42728 299.48203 122.3512 C 299.1492 122.3512 298.84414 122.09447 298.5668 121.58098 C 298.28945 121.0675 298.0306 120.34483 297.79023 119.41295 C 297.54987 118.48107 297.4297 117.61576 297.4297 116.81701 C 297.4297 116.51272 297.50365 116.31304 297.65156 116.21795 C 297.79948 116.12286 297.9474 116.0563 298.0953 116.01826 L 298.0953 115.16246 C 297.28177 115.16246 296.82878 115.46674 296.73633 116.07531 C 296.64388 116.68389 296.59766 117.1213 296.59766 117.38754 C 296.59766 118.26237 296.7548 119.1562 297.06914 120.06906 C 297.38347 120.98192 297.71627 121.74263 298.06758 122.3512 C 298.41888 122.95978 298.68698 123.27357 298.87188 123.29259 C 299.05677 123.3116 299.1862 123.32112 299.26016 123.32112 L 299.75938 125.94558 C 299.98125 126.93451 300.425 127.91392 301.09062 128.88384 C 301.75625 129.85375 302.41263 130.69053 303.05977 131.3942 C 303.7069 132.09786 304.23385 132.50674 304.64063 132.62085 C 305.0474 132.73496 305.3987 132.81103 305.69453 132.84906 L 308.68984 132.84906 C 309.02266 132.81103 309.3647 132.75397 309.716 132.6779 C 310.06732 132.60183 310.83463 132.07884 312.01797 131.10893 C 313.2013 130.13901 314.05182 128.70318 314.56953 126.80138 C 315.08724 124.89959 315.3646 123.81558 315.40156 123.54933 C 315.77136 123.43522 316.03945 123.29259 316.20586 123.12143 C 316.37227 122.95027 316.64036 122.48433 317.01016 121.72362 C 317.37995 120.9629 317.64805 120.36384 317.81445 119.92643 C 317.98086 119.48902 318.08255 119.06112 318.11953 118.64272 C 318.1565 118.22433 318.175 117.78692 318.175 117.33049 C 318.175 117.0262 318.175 116.83603 318.175 116.75996 L 318.175 116.7029 C 318.175 116.13236 318.01784 115.76152 317.7035 115.59036 C 317.3892 115.4192 317.06563 115.29558 316.7328 115.21951 L 316.7328 116.07531 C 316.99167 116.15138 317.15807 116.31303 317.23203 116.56027 C 317.306 116.8075 317.36146 117.06424 317.39844 117.33049 Z" fill="blue"/>
      </g>
    </g>
  </g>
</svg>
