<?xml version="1.0" encoding="UTF-8" standalone="no"?>
<!DOCTYPE svg PUBLIC "-//W3C//DTD SVG 1.1//EN" "http://www.w3.org/Graphics/SVG/1.1/DTD/svg11.dtd">
<svg xmlns="http://www.w3.org/2000/svg" xmlns:dc="http://purl.org/dc/elements/1.1/" xmlns:xl="http://www.w3.org/1999/xlink" version="1.1" viewBox="244.95268 97.30469 41.07857 39.9375" width="41.07857" height="39.9375">
  <defs/>
  <g id="Canvas_1" stroke-dasharray="none" fill="none" stroke-opacity="1" stroke="none" fill-opacity="1">
    <title>Canvas 1</title>
    <g id="Canvas_1_Layer_1">
      <title>Layer 1</title>
      <g id="Graphic_165">
        <circle cx="264.86618" cy="117.27344" r="18.8437801104639" fill="white"/>
      </g>
      <g id="Graphic_156">
        <title>n</title>
        <path d="M 244.95268 117.27344 C 244.95268 111.79627 246.89248 107.0989 250.77214 103.1812 C 254.6518 99.26351 259.3682 97.30469 264.92143 97.30469 C 270.43663 97.30469 275.1435 99.254 279.0422 103.15268 C 282.94087 107.05136 284.89018 111.75823 284.89018 117.27344 C 284.89018 122.78864 282.94087 127.49552 279.0422 131.3942 C 275.1435 135.29288 270.43663 137.24219 264.92143 137.24219 C 259.3682 137.24219 254.6518 135.30239 250.77214 131.42272 C 246.89248 127.54306 244.95268 122.82668 244.95268 117.27344 Z M 261.21295 134.50362 C 262.58224 133.857 264.1417 133.2104 265.89134 132.5638 C 267.641 131.91718 269.0673 131.45125 270.17036 131.16598 C 271.2734 130.88071 271.8249 130.60496 271.8249 130.3387 C 271.74884 130.07245 271.7108 129.9013 271.7108 129.82522 L 264.06562 111.62513 C 263.98955 111.43495 263.86594 111.25429 263.69478 111.08312 C 263.5236 110.91196 263.24786 110.82638 262.8675 110.82638 C 262.25893 110.82638 261.95464 111.0546 261.95464 111.51103 C 261.9166 111.77728 261.9166 111.94844 261.95464 112.02451 C 262.18286 112.82326 262.42058 113.56495 262.6678 114.2496 C 262.91505 114.93424 263.13375 115.48576 263.32393 115.90415 C 263.32393 116.24647 263.2859 116.41763 263.20982 116.41763 C 263.0957 116.4937 263.00063 116.43665 262.92455 116.24647 L 260.92768 111.0546 C 260.81357 110.82638 260.66143 110.58866 260.47125 110.34143 C 260.28107 110.0942 260.03384 109.97058 259.72955 109.97058 C 259.42527 109.97058 259.1495 110.08469 258.90228 110.3129 C 258.65504 110.54112 258.53143 110.82638 258.53143 111.1687 L 258.64554 111.9104 L 260.4142 117.10228 C 260.4142 117.17835 260.4332 117.38754 260.47125 117.72987 C 260.35714 117.6538 260.26205 117.57772 260.18598 117.50165 L 258.3032 112.42388 C 258.22714 112.2337 258.13205 112.05304 258.01795 111.88188 C 257.90384 111.71071 257.69464 111.62513 257.39036 111.62513 C 257.04803 111.62513 256.77228 111.74875 256.56308 111.99598 C 256.35388 112.24322 256.2493 112.51897 256.2493 112.82326 C 256.2493 113.05147 256.2683 113.26067 256.30634 113.45085 C 256.34438 113.64103 256.40143 113.8312 256.4775 114.02138 L 258.41732 119.27031 C 258.45536 119.53656 258.45536 119.6887 258.41732 119.72674 C 258.34125 119.80281 258.26518 119.80281 258.1891 119.72674 C 258.11304 119.65067 258.05598 119.5746 258.01795 119.49853 L 256.13518 114.93424 C 256.02107 114.74406 255.90696 114.5634 255.79286 114.39223 C 255.67875 114.22107 255.48857 114.13549 255.22232 114.13549 C 254.42357 114.13549 254.0242 114.62995 254.0242 115.61888 L 254.1383 116.53174 L 260.3001 134.10424 C 260.4142 134.29442 260.54732 134.42754 260.69946 134.50362 C 260.8516 134.57969 261.02277 134.57969 261.21295 134.50362 Z M 270.56973 124.86156 L 271.0832 126.00263 L 274.62054 125.20388 C 274.73464 125.16585 274.84875 125.08027 274.96286 124.94714 C 275.07696 124.81402 275.115 124.53826 275.07696 124.11987 L 273.87884 118.01513 C 273.7267 117.21638 273.58406 116.22746 273.45094 115.04835 C 273.3178 113.86924 273.25125 112.69014 273.25125 111.51103 L 273.0801 104.6646 C 273.0801 104.28424 273.00402 103.67567 272.85188 102.83888 C 272.69973 102.0021 272.09117 101.5837 271.02616 101.5837 C 270.68384 101.5837 270.4271 101.62174 270.25594 101.69781 C 270.08478 101.77388 269.94214 101.84995 269.82804 101.92603 C 269.82804 101.4696 269.64737 101.0417 269.28603 100.64232 C 268.9247 100.24294 268.4968 100.04326 268.00232 100.04326 C 267.39375 100.04326 266.99438 100.1954 266.8042 100.49969 C 266.61402 100.80397 266.46188 101.10826 266.34777 101.41254 C 266.23366 101.29844 266.09103 101.17482 265.91987 101.0417 C 265.7487 100.90857 265.49197 100.84201 265.14964 100.84201 C 264.27482 100.84201 263.7233 101.0512 263.4951 101.4696 C 263.26687 101.88799 263.11473 102.34442 263.03866 102.83888 C 262.92455 102.76281 262.80094 102.67723 262.6678 102.58214 C 262.5347 102.48705 262.35402 102.43951 262.1258 102.43951 C 261.8976 102.47754 261.51723 102.59165 260.98473 102.78183 C 260.45223 102.97201 260.18598 103.69468 260.18598 104.94987 L 260.24304 109.40004 C 260.35714 109.43808 260.5188 109.49513 260.728 109.5712 C 260.9372 109.64728 261.07982 109.74237 261.1559 109.85647 L 261.1559 104.72165 C 261.19393 104.30326 261.2795 103.97996 261.41263 103.75174 C 261.54576 103.52353 261.78348 103.40942 262.1258 103.40942 C 262.4301 103.40942 262.61076 103.50451 262.6678 103.69469 C 262.72487 103.88487 262.7724 104.09406 262.81045 104.32228 L 262.81045 108.82951 C 262.92455 109.28594 263.0767 109.51415 263.26687 109.51415 C 263.45705 109.51415 263.59018 109.4571 263.66625 109.34299 C 263.74232 109.22888 263.79937 109.07674 263.8374 108.88656 L 263.8374 103.1812 C 263.87545 102.76281 263.96103 102.43951 264.09415 102.2113 C 264.22728 101.98308 264.465 101.86897 264.80732 101.86897 C 265.22572 101.86897 265.48245 102.0021 265.57754 102.26835 C 265.67263 102.5346 265.7392 102.83888 265.77723 103.1812 L 265.77723 106.54737 C 265.81527 106.69951 265.8628 106.86116 265.91987 107.03232 C 265.97692 107.20348 266.11955 107.28906 266.34777 107.28906 C 266.57598 107.28906 266.7186 107.21299 266.77567 107.06085 C 266.83272 106.9087 266.88027 106.73755 266.9183 106.54737 L 266.9183 101.92603 C 266.95634 101.65978 267.04192 101.44107 267.17504 101.26991 C 267.30817 101.09875 267.5459 101.01317 267.8882 101.01317 C 268.23054 101.01317 268.5158 101.31745 268.74402 101.92603 L 268.74402 106.66147 C 268.78205 106.81362 268.8391 106.96576 268.91518 107.1179 C 268.99125 107.27005 269.1434 107.34612 269.3716 107.34612 C 269.59982 107.34612 269.74246 107.27005 269.7995 107.1179 C 269.85656 106.96576 269.9041 106.83263 269.94214 106.71853 L 269.94214 104.20817 C 269.94214 103.90388 269.9897 103.61862 270.08478 103.35237 C 270.17987 103.08611 270.45562 102.95299 270.91205 102.95299 C 271.3685 102.95299 271.64424 103.10513 271.73933 103.40942 C 271.83442 103.71371 271.90098 104.01799 271.93902 104.32228 L 271.93902 111.22576 L 272.50955 118.1863 L 273.70768 124.11987 C 273.4034 124.11987 272.85188 124.20545 272.05313 124.3766 C 271.25437 124.54777 270.7599 124.70942 270.56973 124.86156 Z M 268.5158 120.52549 L 269.31455 121.72362 L 270.51268 114.53487 L 270.6268 113.56496 C 270.6268 112.84227 270.40808 112.20518 269.97067 111.65366 C 269.53326 111.10214 268.95322 110.82638 268.23054 110.82638 C 267.69803 110.82638 267.27964 110.97853 266.97536 111.28281 C 266.67107 111.5871 266.42384 111.89138 266.23366 112.19567 L 265.54902 114.07844 L 266.11955 115.1054 L 266.9183 112.7662 C 266.99438 112.53799 267.118 112.30978 267.28915 112.08156 C 267.4603 111.85335 267.7741 111.73924 268.23054 111.73924 C 268.725 111.73924 269.09585 111.94844 269.34308 112.36683 C 269.5903 112.78523 269.71393 113.22263 269.71393 113.67906 C 269.71393 114.09746 269.5618 115.13392 269.2575 116.78848 C 268.9532 118.44304 268.70598 119.6887 268.5158 120.52549 Z" fill="blue"/>
      </g>
    </g>
  </g>
</svg>
