<?xml version="1.0" encoding="UTF-8" standalone="no"?>
<!DOCTYPE svg PUBLIC "-//W3C//DTD SVG 1.1//EN" "http://www.w3.org/Graphics/SVG/1.1/DTD/svg11.dtd">
<svg xmlns="http://www.w3.org/2000/svg" xmlns:dc="http://purl.org/dc/elements/1.1/" xmlns:xl="http://www.w3.org/1999/xlink" version="1.1" viewBox="41.56785 177.1875 39.9375 39.9375" width="39.9375" height="39.9375">
  <defs/>
  <g id="Canvas_1" stroke-dasharray="none" fill="none" stroke-opacity="1" stroke="none" fill-opacity="1">
    <title>Canvas 1</title>
    <g id="Canvas_1_Layer_1">
      <title>Layer 1</title>
      <g id="Graphic_120">
        <circle cx="61.5366" cy="197.15625" r="19.9687819081035" fill="blue"/>
      </g>
      <g id="Graphic_118">
        <title>!</title>
        <path d="M 61.49621 179.34541 C 63.219415 179.34541 64.323326 179.80313 64.80798 180.71858 C 65.29263 181.63403 65.64265 182.60332 65.85805 183.62647 L 63.83868 201.8008 C 63.67713 202.28545 63.44827 202.7701 63.152094 203.25475 C 62.85592 203.7394 62.27704 203.98172 61.415436 203.98172 C 60.661535 203.98172 60.136504 203.7394 59.84033 203.25475 C 59.54415 202.7701 59.28837 202.25853 59.07297 201.72002 L 57.13437 183.70725 C 57.24207 182.73795 57.52478 181.76866 57.98251 180.79936 C 58.440234 179.83006 59.61146 179.34541 61.49621 179.34541 Z M 57.29592 210.68603 C 57.29592 209.50132 57.713255 208.49165 58.54793 207.65697 C 59.38261 206.8223 60.39228 206.40496 61.576986 206.40496 C 62.76169 206.40496 63.784825 206.80883 64.64643 207.61658 C 65.50803 208.42434 65.93882 209.44747 65.93882 210.68603 C 65.93882 211.81688 65.50803 212.8131 64.64643 213.6747 C 63.784825 214.5363 62.76169 214.9671 61.576986 214.9671 C 60.33843 214.9671 59.315296 214.56322 58.507544 213.75547 C 57.69979 212.94772 57.29592 211.92458 57.29592 210.68603 Z" fill="white"/>
      </g>
    </g>
  </g>
</svg>
