<?xml version="1.0" encoding="UTF-8" standalone="no"?>
<!DOCTYPE svg PUBLIC "-//W3C//DTD SVG 1.1//EN" "http://www.w3.org/Graphics/SVG/1.1/DTD/svg11.dtd">
<svg xmlns="http://www.w3.org/2000/svg" xmlns:dc="http://purl.org/dc/elements/1.1/" xmlns:xl="http://www.w3.org/1999/xlink" version="1.1" viewBox="329.0625 54.8375 39.9375 38.828125" width="39.9375" height="38.828125">
  <defs/>
  <g id="Canvas_1" stroke-dasharray="none" fill="none" stroke-opacity="1" stroke="none" fill-opacity="1">
    <title>Canvas 1</title>
    <g id="Canvas_1_Layer_1">
      <title>Layer 1</title>
      <g id="Graphic_171">
        <circle cx="348.75" cy="74.25156" r="18.8437801104638" fill="white"/>
      </g>
      <g id="Graphic_168">
        <title>w</title>
        <path d="M 329.0625 74.25156 C 329.0625 68.88956 330.95766 64.31343 334.74805 60.52305 C 338.53843 56.73266 343.11456 54.8375 348.47656 54.8375 C 353.83857 54.8375 358.4147 56.73266 362.20508 60.52305 C 365.99546 64.31343 367.89062 68.88956 367.89062 74.25156 C 367.89062 79.61357 365.99546 84.18969 362.20508 87.98008 C 358.4147 91.77046 353.83857 93.66562 348.47656 93.66562 C 343.11456 93.66562 338.53843 91.77046 334.74805 87.98008 C 330.95766 84.18969 329.0625 79.61357 329.0625 74.25156 Z M 346.70156 85.40078 L 347.97734 86.23281 C 347.8664 85.86302 347.91263 85.53021 348.116 85.23438 C 348.3194 84.93854 348.606 84.69818 348.9758 84.51328 C 349.16068 84.43932 349.40104 84.43932 349.69688 84.51328 C 349.3271 84.06953 348.8926 83.65352 348.39336 83.26523 C 347.89414 82.87695 347.3672 82.46094 346.8125 82.01719 C 346.2578 81.57344 345.6939 81.14818 345.1207 80.74141 C 344.54752 80.33463 343.9836 79.96485 343.4289 79.63203 C 342.8742 79.29922 342.51367 79.08659 342.34727 78.99414 C 342.18086 78.90169 341.94974 78.85547 341.6539 78.85547 L 340.2117 78.85547 C 339.84193 78.85547 339.40742 78.81849 338.9082 78.74453 C 338.409 78.67057 337.7711 78.42097 336.99453 77.9957 C 336.21796 77.57044 335.36745 77.00651 334.44297 76.30391 L 331.94687 80.18672 C 332.9453 80.77839 333.79583 81.39778 334.49844 82.04492 C 335.20105 82.69206 335.7465 83.27448 336.13477 83.79219 C 336.52305 84.3099 336.85586 84.84609 337.1332 85.40078 C 337.41055 85.95547 337.62318 86.39922 337.7711 86.73203 L 338.2703 87.45312 C 338.6771 87.89688 339.35195 88.30364 340.29492 88.67344 C 341.2379 89.04323 342.36575 89.39453 343.6785 89.72734 C 344.9913 90.06016 346.6091 90.42995 348.53203 90.83672 L 348.7539 90.44844 C 349.1237 90.41146 349.50273 90.43919 349.891 90.53164 C 350.2793 90.62409 350.6768 90.70729 351.0836 90.78125 C 351.0836 90.07864 350.82474 89.52396 350.30703 89.11719 C 349.9742 89.00625 349.23464 88.80287 348.0883 88.50703 C 346.94192 88.2112 345.99896 87.93386 345.25937 87.675 L 342.7078 86.73203 C 342.48594 86.62109 342.31953 86.47318 342.2086 86.28828 C 342.09766 86.10338 342.0422 85.88151 342.0422 85.62266 C 342.0422 85.28984 342.14388 84.95703 342.34727 84.62422 C 342.55065 84.2914 342.83724 84.06953 343.20703 83.95859 C 343.50287 83.88464 343.99284 83.99557 344.67695 84.29141 C 345.36107 84.58724 346.03593 84.95703 346.70156 85.40078 Z M 350.3625 86.45469 C 349.8448 86.89844 349.54896 87.12031 349.475 87.12031 C 349.3271 87.15729 349.15143 87.1388 348.94805 87.06484 C 348.74466 86.99089 348.55052 86.87995 348.36562 86.73203 L 347.7 86.95391 C 347.47812 87.06484 347.27474 87.21276 347.08984 87.39766 C 346.90495 87.58255 346.77552 87.71198 346.70156 87.78594 C 347.07136 87.93385 347.67226 88.11875 348.5043 88.34062 C 349.33633 88.5625 349.87252 88.72891 350.1129 88.83984 C 350.35326 88.95078 350.5474 89.00625 350.6953 89.00625 C 351.50886 89.00625 352.09127 88.98776 352.44258 88.95078 C 352.7939 88.9138 353.2561 88.79362 353.8293 88.59023 C 354.40248 88.38685 354.9479 88.18346 355.46562 87.98008 C 355.98334 87.77669 356.3716 87.51784 356.63047 87.20352 C 356.88932 86.88919 357.2961 86.36224 357.8508 85.62266 C 358.40547 84.88307 358.8677 84.29141 359.2375 83.84766 L 360.73516 82.40547 C 361.51172 81.73984 362.4177 81.20365 363.45312 80.796875 C 363.04635 79.87239 362.6673 79.0681 362.316 78.38398 C 361.9647 77.69987 361.60417 76.969535 361.23438 76.19297 C 359.7552 77.26537 358.5534 77.884765 357.6289 78.05117 C 356.70442 78.21758 356.09427 78.30078 355.79844 78.30078 C 355.5026 78.30078 355.28073 78.30078 355.1328 78.30078 L 353.63516 78.30078 C 353.5242 78.30078 353.15443 78.43945 352.5258 78.7168 C 351.89713 78.99414 351.44414 79.19753 351.1668 79.32695 C 350.88945 79.45638 350.47344 79.70599 349.91875 80.07578 C 349.17916 80.48255 348.64297 80.79687 348.31016 81.01875 C 347.97734 81.24063 347.58906 81.55495 347.1453 81.96172 L 349.41953 83.90313 C 349.71537 83.68125 349.95573 83.51484 350.14062 83.40391 C 350.32552 83.29297 350.5289 83.20052 350.7508 83.12656 C 350.97266 83.0526 351.32396 83.015625 351.8047 83.015625 C 352.1745 83.015625 352.51653 83.11732 352.83086 83.3207 C 353.1452 83.52409 353.30234 83.90312 353.30234 84.45781 C 353.26536 84.86459 353.1082 85.17891 352.83086 85.40078 C 352.5535 85.62266 352.18373 85.8168 351.7215 85.9832 C 351.25924 86.14961 350.80625 86.30677 350.3625 86.45469 Z M 345.14844 73.86328 L 344.92656 75.028125 C 344.8526 75.54584 344.79714 76.12825 344.76016 76.77539 C 344.72318 77.42253 344.6862 78.04192 344.6492 78.63359 L 344.4828 80.13125 L 345.5922 80.90781 L 345.925 80.85234 C 346.03594 80.81536 346.1284 80.64896 346.20234 80.353125 C 346.2763 80.05729 346.35026 79.89089 346.4242 79.85391 L 346.59062 80.24219 C 346.6276 80.390105 346.6461 80.61198 346.6461 80.90781 C 346.6461 81.20365 346.6461 81.42552 346.6461 81.57344 L 346.92344 81.73984 C 347.21927 81.51797 347.44115 81.37005 347.58906 81.29609 C 347.58906 81.00026 347.62604 80.51953 347.7 79.85391 C 347.77396 79.18828 347.81094 78.81849 347.81094 78.74453 C 347.81094 78.04192 347.92187 77.30235 348.14375 76.52578 L 348.2547 76.41484 L 348.36562 76.52578 L 348.2547 78.18984 L 348.2547 80.796875 L 349.1422 80.29766 C 349.1422 80.00182 349.1422 79.69675 349.1422 79.38242 C 349.1422 79.0681 349.16068 78.76302 349.19766 78.46719 C 349.19766 77.87552 349.1422 77.2931 349.03125 76.71992 C 348.9203 76.14674 348.80938 75.39792 348.69844 74.47344 L 348.4211 72.97578 L 345.4258 72.97578 Z M 350.80625 68.09453 L 352.35937 68.09453 L 352.35937 69.0375 L 353.025 69.0375 L 353.025 70.25781 L 357.2961 70.25781 L 357.2961 69.0375 L 358.07266 69.0375 L 358.07266 68.09453 L 359.01562 68.09453 L 359.01562 69.259375 L 360.01406 69.259375 L 360.01406 70.70156 L 361.5117 70.70156 L 361.5117 62.27031 L 360.01406 62.27031 L 360.01406 63.65703 L 359.01562 63.65703 L 359.01562 64.821875 L 358.07266 64.821875 L 358.07266 63.82344 L 356.85234 63.82344 L 356.85234 63.046875 L 355.90938 63.046875 L 355.90938 61.43828 L 358.57187 61.43828 L 358.57187 59.996094 L 356.0758 59.996094 C 356.00182 59.848176 355.90938 59.709506 355.79844 59.58008 C 355.6875 59.45065 355.5026 59.38594 355.24375 59.38594 C 354.9849 59.38594 354.80925 59.441406 354.7168 59.552344 C 354.62435 59.66328 354.54115 59.8112 354.4672 59.996094 L 351.91562 59.996094 L 351.91562 61.43828 L 354.6336 61.43828 L 354.6336 63.046875 L 353.69062 63.046875 L 353.69062 63.82344 L 352.35937 63.82344 L 352.35937 64.821875 L 350.47344 64.821875 C 348.80937 65.04375 347.5336 65.57994 346.6461 66.43047 C 345.7586 67.28099 345.31484 68.760146 345.31484 70.86797 L 345.31484 72.53203 L 348.36562 72.53203 L 348.36562 70.92344 C 348.36562 70.55364 348.44883 69.98972 348.61523 69.23164 C 348.78164 68.47356 349.51197 68.09453 350.80625 68.09453 Z M 350.63984 76.52578 C 350.1591 76.78464 349.91875 77.22838 349.91875 77.85703 C 349.91875 77.96797 349.91875 78.07891 349.91875 78.18984 C 349.9927 78.33776 350.0297 78.43021 350.0297 78.46719 C 350.0297 78.24531 350.12213 78.03268 350.30703 77.8293 C 350.49193 77.62591 350.67682 77.41328 350.8617 77.19141 L 351.02812 76.803125 C 351.02812 76.54427 350.8987 76.45182 350.63984 76.52578 Z M 352.80312 76.52578 C 352.6922 76.41484 352.54427 76.41484 352.35937 76.52578 C 351.84166 76.895575 351.5828 77.48724 351.5828 78.30078 L 352.6367 77.246875 C 352.8216 77.13594 352.91406 76.98802 352.91406 76.803125 Z M 352.24844 74.75078 C 351.84166 74.93568 351.6383 75.342445 351.6383 75.97109 C 351.6383 76.22995 351.65677 76.41484 351.69375 76.52578 L 351.8047 76.24844 C 352.1375 75.841665 352.37786 75.508855 352.5258 75.25 L 352.58125 75.08359 C 352.61823 75.009635 352.5905 74.91719 352.49805 74.80625 C 352.4056 74.69531 352.3224 74.67682 352.24844 74.75078 Z M 344.15 76.41484 C 344.07604 75.52734 343.9836 74.97266 343.87266 74.75078 C 343.68776 74.60286 343.55833 74.52891 343.48438 74.52891 C 343.4104 74.52891 343.33646 74.63984 343.2625 74.86172 C 343.2625 75.15755 343.35495 75.434895 343.53984 75.69375 C 343.72474 75.952605 343.92812 76.19297 344.15 76.41484 Z M 342.65234 77.025 L 343.8172 78.07891 C 343.8172 77.3763 343.70625 76.858595 343.48438 76.52578 C 343.2625 76.19297 343.04063 76.02656 342.81875 76.02656 C 342.5599 76.02656 342.43047 76.15599 342.43047 76.41484 C 342.43047 76.56276 342.44896 76.69219 342.48594 76.803125 C 342.59688 76.91406 342.65234 76.98802 342.65234 77.025 Z M 343.0961 78.578125 C 343.02214 78.17135 342.83724 77.87552 342.5414 77.690625 C 342.3935 77.7276 342.26406 77.76458 342.15312 77.80156 C 342.1901 77.94948 342.34726 78.10664 342.6246 78.27305 C 342.90195 78.43945 343.0591 78.54115 343.0961 78.578125 Z M 346.2578 85.34531 L 344.76016 84.51328 C 344.57526 84.77214 344.4828 84.97552 344.4828 85.12344 C 344.4828 85.45625 344.7047 85.62266 345.14844 85.62266 Z M 347.47812 86.23281 C 347.40417 86.15885 347.284 86.07565 347.11758 85.9832 C 346.95117 85.89075 346.75703 85.84453 346.53516 85.84453 C 346.0914 85.84453 345.6754 85.92773 345.2871 86.09414 C 344.89883 86.26055 344.55677 86.56562 344.26094 87.00938 L 346.3133 87.675 C 346.2763 87.4901 346.2948 87.34219 346.36875 87.23125 Z M 346.4797 87.34219 L 346.59062 87.50859 C 347.07136 87.28672 347.45963 86.91693 347.75547 86.39922 L 347.3672 86.56563 C 347.21927 86.67656 347.07135 86.77825 346.92344 86.8707 C 346.7755 86.96315 346.6276 87.12031 346.4797 87.34219 Z M 348.9203 84.79062 C 348.4396 85.04948 348.1992 85.43776 348.1992 85.95547 C 348.1992 86.32526 348.47656 86.62109 349.03125 86.84297 C 349.36406 86.99089 349.63216 86.96315 349.83555 86.75977 C 350.03893 86.55638 350.1961 86.32526 350.30703 86.06641 C 350.49193 85.69661 350.47344 85.40078 350.25156 85.17891 C 349.88177 84.92005 349.61367 84.76289 349.44727 84.70742 C 349.28086 84.65195 349.1052 84.67969 348.9203 84.79062 Z M 348.7539 90.89219 C 349.1237 90.96615 349.5397 91.03086 350.00195 91.08633 C 350.4642 91.1418 350.84323 91.16953 351.13906 91.16953 C 350.99115 91.02161 350.76927 90.89219 350.47344 90.78125 C 350.1776 90.67031 349.75235 90.61484 349.19766 90.61484 C 348.90182 90.6888 348.7539 90.78125 348.7539 90.89219 Z M 342.98516 89.72734 L 339.76797 88.78438 C 340.02682 89.04323 340.32265 89.30208 340.65547 89.56094 C 340.9883 89.81979 341.3211 89.94922 341.6539 89.94922 Z" fill="blue"/>
      </g>
    </g>
  </g>
</svg>
