<?xml version="1.0" encoding="UTF-8" standalone="no"?>
<!DOCTYPE svg PUBLIC "-//W3C//DTD SVG 1.1//EN" "http://www.w3.org/Graphics/SVG/1.1/DTD/svg11.dtd">
<svg xmlns="http://www.w3.org/2000/svg" xmlns:dc="http://purl.org/dc/elements/1.1/" xmlns:xl="http://www.w3.org/1999/xlink" version="1.1" viewBox="279.7175 195.2625 50.624 44.8" width="50.624" height="44.8">
  <defs/>
  <g id="Canvas_1" stroke-dasharray="none" fill="none" stroke-opacity="1" stroke="none" fill-opacity="1">
    <title>Canvas 1</title>
    <g id="Canvas_1_Layer_1">
      <title>Layer 1</title>
      <g id="Graphic_65">
        <path d="M 327.9375 237.63125 L 304.875 197.69375 L 281.8125 237.63125 Z" fill="#ffed00"/>
      </g>
      <g id="Graphic_230">
        <path d="M 330.1495 237.2465 L 306.7255 196.1585 C 306.5975 195.94517 306.42683 195.7425 306.2135 195.5505 C 306.00017 195.3585 305.65884 195.2625 305.1895 195.2625 C 304.72016 195.2625 304.36817 195.3585 304.1335 195.5505 C 303.89883 195.7425 303.69617 195.94517 303.5255 196.1585 L 280.0375 237.1185 C 279.95217 237.16117 279.8775 237.25717 279.8135 237.4065 C 279.7495 237.55583 279.7175 237.8225 279.7175 238.2065 C 279.7175 238.50517 279.80283 238.79317 279.9735 239.0705 C 280.14417 239.34783 280.33617 239.5825 280.5495 239.7745 C 280.76283 239.9665 281.0615 240.0625 281.4455 240.0625 L 328.3575 240.0625 C 328.69884 240.01983 329.01883 239.94517 329.3175 239.8385 C 329.61617 239.73183 329.8615 239.50784 330.0535 239.1665 C 330.2455 238.82516 330.3415 238.48384 330.3415 238.1425 C 330.3415 237.7585 330.2775 237.45983 330.1495 237.2465 Z M 305.1895 199.6785 L 326.1175 236.7985 L 283.8775 236.7985 Z M 308.2615 226.1745 L 319.3975 226.1745 L 318.5655 224.7025 L 307.8135 224.7025 L 311.5895 223.1025 L 311.0775 221.6945 L 307.4295 223.2305 L 311.9095 218.8145 L 310.8855 217.6625 L 306.3415 222.1425 L 307.9415 218.4305 L 306.4695 217.8545 L 304.9335 221.5025 L 304.9335 215.1665 L 303.4615 215.1665 L 303.4615 221.9505 L 301.7975 217.8545 L 300.3895 218.4945 L 301.8615 222.0145 L 297.3815 217.5985 L 296.3575 218.8145 L 300.8375 223.1665 L 297.1895 221.6945 L 296.7415 223.1025 L 300.7095 224.7025 L 293.9895 224.7025 L 293.9895 226.1745 L 300.0695 226.1745 L 296.6775 227.5825 L 297.2535 228.9905 L 300.9655 227.5185 L 296.4855 231.8705 L 297.5735 232.8945 L 302.1175 228.4145 L 300.5175 232.2545 L 301.9255 232.8305 L 303.4615 229.1825 L 303.4615 235.4545 L 304.9335 235.4545 L 304.9335 229.4385 L 306.3415 232.8945 L 307.7495 232.2545 L 306.1495 228.4145 L 310.9495 233.0865 L 312.0375 231.9985 L 307.3655 227.4545 L 311.2055 228.9905 L 311.7175 227.5825 Z" fill="black"/>
      </g>
    </g>
  </g>
</svg>
