<?xml version="1.0" encoding="UTF-8" standalone="no"?>
<!DOCTYPE svg PUBLIC "-//W3C//DTD SVG 1.1//EN" "http://www.w3.org/Graphics/SVG/1.1/DTD/svg11.dtd">
<svg xmlns="http://www.w3.org/2000/svg" xmlns:dc="http://purl.org/dc/elements/1.1/" xmlns:xl="http://www.w3.org/1999/xlink" version="1.1" viewBox="138.9375 256.60625 51.968 44.8" width="51.968" height="44.8">
  <defs/>
  <g id="Canvas_1" stroke-dasharray="none" fill="none" stroke-opacity="1" stroke="none" fill-opacity="1">
    <title>Canvas 1</title>
    <g id="Canvas_1_Layer_1">
      <title>Layer 1</title>
      <g id="Graphic_66">
        <path d="M 187.3125 299.25 L 164.25 259.3125 L 141.1875 299.25 Z" fill="#ffed00"/>
      </g>
      <g id="Graphic_43">
        <title>4</title>
        <path d="M 189.3695 298.65425 C 189.54017 298.91025 189.6255 299.23025 189.6255 299.61425 C 189.6255 299.87025 189.5295 300.1689 189.3375 300.51025 C 189.1455 300.8516 188.87884 301.0756 188.5375 301.18225 C 188.19616 301.2889 187.87617 301.3636 187.5775 301.40625 L 140.6655 301.40625 C 140.2815 301.40625 139.98283 301.31025 139.7695 301.11825 C 139.55617 300.92625 139.36417 300.7129 139.1935 300.47825 C 139.02283 300.2436 138.9375 299.9556 138.9375 299.61425 C 138.9375 299.31558 138.95883 299.0809 139.0015 298.91025 C 139.04417 298.7396 139.1295 298.59025 139.2575 298.46225 L 162.8095 257.50225 C 162.98017 257.28892 163.17217 257.08625 163.3855 256.89425 C 163.59883 256.70225 163.94016 256.60625 164.4095 256.60625 C 164.9215 256.60625 165.2735 256.70225 165.4655 256.89425 C 165.6575 257.08625 165.8175 257.28892 165.9455 257.50225 Z M 164.4095 261.02225 L 143.0975 298.20625 L 185.3375 298.20625 Z" fill="black"/>
      </g>
      <g id="Graphic_45">
        <rect x="154.87126" y="293.625" width="20.100477" height="2.483421" fill="black"/>
      </g>
      <g id="Line_47">
        <path d="M 164.9215 291.9375 C 167.98956 287.36292 165.9606 285.33545 164.9215 282.8966 C 163.7625 280.17632 161.98433 277.859 164.9215 272.8125" stroke="black" stroke-linecap="butt" stroke-linejoin="round" stroke-width="1.75"/>
      </g>
      <g id="Line_49">
        <path d="M 168.66525 291.9375 C 171.7333 287.36292 169.70435 285.33545 168.66525 282.8966 C 167.50625 280.17632 165.72808 277.859 168.66525 272.8125" stroke="black" stroke-linecap="butt" stroke-linejoin="round" stroke-width="1.75"/>
      </g>
      <g id="Line_50">
        <path d="M 161.17775 291.9375 C 164.24581 287.76656 162.21686 285.918 161.17775 283.69432 C 160.01876 281.21407 158.24059 279.10123 161.17775 274.5" stroke="black" stroke-linecap="butt" stroke-linejoin="round" stroke-width="1.75"/>
      </g>
    </g>
  </g>
</svg>
