<?xml version="1.0" encoding="UTF-8" standalone="no"?>
<!DOCTYPE svg PUBLIC "-//W3C//DTD SVG 1.1//EN" "http://www.w3.org/Graphics/SVG/1.1/DTD/svg11.dtd">
<svg xmlns="http://www.w3.org/2000/svg" xmlns:dc="http://purl.org/dc/elements/1.1/" xmlns:xl="http://www.w3.org/1999/xlink" version="1.1" viewBox="145.016 56.77161 50.688 44.8" width="50.688" height="44.8">
  <defs/>
  <g id="Canvas_1" stroke-dasharray="none" fill="none" stroke-opacity="1" stroke="none" fill-opacity="1">
    <title>Canvas 1</title>
    <g id="Canvas_1_Layer_1">
      <title>Layer 1</title>
      <g id="Group_235">
        <g id="Graphic_178">
          <path d="M 193.76385 99.4888 L 170.5152 60.1875 L 147.26654 99.4888 Z" fill="#ffec00"/>
        </g>
        <g id="Graphic_164">
          <title>~</title>
          <path d="M 172.83049 78.65148 L 172.13134 78.75635 C 172.13134 79.362285 172.09638 79.81673 172.02646 80.1197 L 172.55083 80.29448 L 172.20125 81.30825 L 171.67689 81.09851 L 171.53706 81.37817 C 171.37392 81.68114 171.15253 81.97245 170.87286 82.25211 L 171.22244 82.6716 L 170.38346 83.37075 L 170.03388 82.95126 C 169.59108 83.23092 169.18325 83.41736 168.81037 83.51058 L 168.91524 84.0699 L 167.83155 84.27965 L 167.72668 83.68537 C 167.44702 83.68537 167.16736 83.68537 166.8877 83.68537 C 166.65465 83.63876 166.49151 83.6038 166.3983 83.5805 L 166.18855 84.10486 L 165.17478 83.75529 L 165.34956 83.23092 L 165.10486 83.09109 C 164.8019 82.90465 164.51058 82.68325 164.23092 82.4269 L 163.81143 82.81143 L 163.11228 81.97245 L 163.53177 81.62287 C 163.27541 81.20338 163.07732 80.795545 162.9375 80.39936 L 162.30825 80.50423 L 162.0985 79.38559 L 162.7627 79.28071 C 162.7627 79.07097 162.7627 78.8554 162.7627 78.634 C 162.7627 78.4126 162.79766 78.18538 162.86758 77.95233 L 162.23834 77.70762 L 162.65783 76.69385 L 163.28707 76.9036 L 163.39194 76.69385 L 164.02118 75.81991 L 163.60169 75.29555 L 164.44067 74.56144 L 164.89512 75.0858 C 165.2447 74.85275 165.64088 74.66631 166.08367 74.52648 L 166.01376 73.86229 L 167.06249 73.6875 L 167.20232 74.35169 C 167.41206 74.35169 167.59268 74.35169 167.74416 74.35169 C 167.89564 74.35169 168.15782 74.3983 168.5307 74.491525 L 168.7754 73.82733 L 169.82414 74.21186 L 169.57943 74.87606 L 169.78918 74.98093 C 169.97562 75.09746 170.13875 75.21398 170.27858 75.33051 C 170.41842 75.44703 170.53494 75.5519 170.62816 75.645125 L 171.18748 75.15572 L 171.88663 76.02966 L 171.36227 76.48411 C 171.64193 76.880295 171.82837 77.27648 171.9216 77.672665 L 172.62074 77.56779 Z M 182.72349 84.13982 C 182.7934 84.81567 182.60696 85.32255 182.16417 85.66047 C 181.72137 85.9984 181.20866 86.16736 180.62603 86.16736 C 180.27645 86.12075 179.81036 86.09744 179.22773 86.09744 C 178.6451 86.09744 178.2023 86.08579 177.89934 86.06249 L 175.69701 86.06249 L 175.4523 85.57308 L 173.42477 85.2235 L 173.00528 86.06249 C 172.79553 86.06249 172.57996 86.07997 172.35856 86.11492 C 172.13716 86.14988 171.87498 86.22562 171.57202 86.34215 L 170.87286 85.71291 L 168.91524 87.00634 L 169.02011 87.9502 C 168.60062 88.25316 168.2627 88.54447 168.00634 88.82414 C 167.74998 89.1038 167.54024 89.31354 167.3771 89.45337 C 167.21397 89.5932 167.05083 89.87869 166.8877 90.30983 C 166.72456 90.74098 166.643 91.15464 166.643 91.55083 C 166.643 92.04024 166.78865 92.50633 167.07997 92.94913 C 167.37128 93.39193 167.61015 93.90464 167.7966 94.48727 C 167.98304 95.0699 168.07626 95.59425 168.07626 96.06036 C 168.07626 96.34002 168.05878 96.55559 168.02382 96.70707 C 167.98886 96.85856 167.9306 97.0683 167.84903 97.33631 C 167.76746 97.60432 167.62764 97.80824 167.42954 97.94807 C 167.23145 98.0879 167.01588 98.15781 166.78283 98.15781 C 166.47986 98.15781 166.2002 98.05294 165.94384 97.8432 C 165.94384 96.37497 165.66419 95.3379 165.10486 94.73197 C 164.54554 94.12603 163.93961 93.55507 163.28707 93.01905 C 163.03071 93.08896 162.7627 93.12392 162.48304 93.12392 C 162.01694 93.12392 161.5858 93.0307 161.18961 92.84426 C 160.79342 92.65782 160.53707 92.40146 160.42054 92.07519 L 155.56144 96.65464 C 155.63136 96.44489 155.7071 96.10114 155.78866 95.62339 C 155.87023 95.14563 155.91102 94.73197 155.91102 94.38239 C 155.91102 93.68324 155.78867 93.10644 155.54396 92.65199 C 155.29926 92.19754 155.09534 91.64988 154.9322 91.00899 C 154.76907 90.36809 154.6875 89.80295 154.6875 89.31354 C 154.6875 89.05719 154.69915 88.87075 154.72246 88.75422 C 155.02542 88.6377 155.63718 88.26482 156.55773 87.63558 C 157.47829 87.00634 158.1716 86.48198 158.6377 86.06249 C 159.10381 85.64299 159.60486 85.30507 160.14088 85.04872 C 160.6769 84.79236 161.11387 84.61757 161.4518 84.52435 C 161.78972 84.43113 162.19755 84.33791 162.6753 84.24469 C 163.15307 84.15147 163.85804 84.02329 164.79024 83.86016 L 164.65041 84.52435 L 165.94384 85.01376 L 166.50317 84.52435 L 167.30719 84.52435 L 167.72668 85.2235 L 169.1949 84.87393 L 169.33473 84.24469 C 169.6377 84.12817 169.8824 83.99999 170.06884 83.86016 L 170.80295 84.27965 L 171.9915 83.37075 L 171.7468 82.49681 C 171.90994 82.26376 172.02646 82.10063 172.09638 82.00741 L 173.04023 81.83262 L 173.49468 80.74893 C 173.70443 80.30613 173.91417 79.97404 174.12392 79.75264 C 174.33367 79.53124 174.5842 79.35646 174.8755 79.22828 C 175.16682 79.1001 175.48144 78.83209 175.81936 78.42425 C 176.15729 78.01641 176.41947 77.65519 176.6059 77.34057 C 176.79235 77.02595 177.06036 76.91525 177.40993 77.00847 C 177.80612 77.17161 178.00421 77.497875 178.00421 77.98728 C 178.00421 78.5 177.75951 78.9894 177.2701 79.4555 C 176.7807 79.92161 176.3379 80.24787 175.94171 80.43431 C 175.8951 80.71398 175.83102 80.9412 175.74945 81.11599 C 175.66788 81.29078 175.55718 81.45974 175.41735 81.62287 C 175.2309 81.78601 175.22508 81.91419 175.39987 82.00741 C 175.57466 82.10063 175.73197 82.08897 175.8718 81.97245 L 176.2913 81.58792 C 176.66417 81.19173 177.14192 80.99364 177.72455 80.99364 C 178.19065 80.99364 178.6684 80.98781 179.15781 80.97616 C 179.64722 80.9645 180.12497 80.92372 180.59107 80.85381 C 180.80082 80.78389 180.9756 80.74893 181.11544 80.74893 C 181.3951 80.74893 181.53493 80.93537 181.53493 81.30825 C 181.53493 81.68114 181.35432 81.99575 180.99309 82.25211 C 180.63186 82.50847 180.03176 82.63664 179.19277 82.63664 C 178.4004 82.63664 177.92265 82.68908 177.7595 82.79395 C 177.59637 82.89883 177.32837 83.14935 176.95548 83.54554 C 176.83896 83.66207 176.80983 83.76694 176.8681 83.86016 C 176.92635 83.95338 177.03705 83.99999 177.20019 83.99999 C 177.31671 83.99999 177.4449 83.96503 177.58472 83.89512 C 177.77116 83.84851 177.94595 83.8252 178.10908 83.8252 C 178.31883 83.8252 178.5577 83.84851 178.82572 83.89512 C 179.09372 83.94173 179.286 83.98251 179.40252 84.01747 C 179.51904 84.05243 179.88027 84.08156 180.4862 84.10486 C 181.09214 84.12817 181.8379 84.13982 182.72349 84.13982 Z M 178.87815 91.62074 L 178.56353 93.40358 L 177.82942 93.26375 C 177.59637 93.9163 177.2468 94.47561 176.7807 94.94171 L 177.20019 95.53599 L 175.76693 96.54976 L 175.34744 95.92053 C 174.7415 96.20019 174.08897 96.34002 173.3898 96.34002 L 173.24998 97.07413 L 171.53706 96.79447 L 171.67689 96.06036 C 171.04765 95.804 170.48833 95.45443 169.99892 95.01163 L 169.40465 95.43112 L 168.35592 93.9629 L 168.98515 93.54341 C 168.7055 92.93748 168.56566 92.29659 168.56566 91.62074 L 167.83155 91.48091 L 168.11121 89.73303 L 168.84532 89.87286 C 169.07838 89.29023 169.4396 88.73092 169.929 88.1949 L 169.50952 87.60062 L 170.94278 86.58685 L 171.36227 87.18113 C 171.9682 86.90147 172.60909 86.76164 173.28494 86.76164 L 173.42477 86.02753 L 175.17265 86.34215 L 175.06777 87.07626 C 175.72032 87.33261 176.26798 87.68219 176.71078 88.12498 L 177.30506 87.70549 L 178.31883 89.17371 L 177.6896 89.5932 C 177.80612 89.84956 177.911 90.15835 178.00421 90.51958 C 178.09743 90.88081 178.14404 91.2129 178.14404 91.51587 Z M 170.69808 80.88876 C 171.04765 80.28283 171.22244 79.66525 171.22244 79.03601 C 171.22244 77.567785 170.75634 76.5715 169.82414 76.04714 C 168.89193 75.52277 168.11122 75.26059 167.48198 75.26059 C 166.03706 75.26059 165.0466 75.72669 164.51058 76.658895 C 163.97456 77.5911 163.70656 78.37181 163.70656 79.00105 C 163.70656 80.42267 164.17265 81.4073 165.10486 81.95497 C 166.03707 82.50264 166.81778 82.77647 167.44702 82.77647 C 168.91525 82.77647 169.99892 82.14724 170.69808 80.88876 Z M 177.13027 92.24998 C 177.17688 91.97032 177.20019 91.76057 177.20019 91.62074 C 177.20019 90.66523 176.90305 89.82626 176.30877 89.1038 C 175.71449 88.38134 175.11439 87.96768 174.50845 87.8628 C 173.90252 87.75793 173.52964 87.70549 173.3898 87.70549 C 172.4343 87.70549 171.60115 88.00263 170.89034 88.59691 C 170.17953 89.19119 169.7717 89.80295 169.66683 90.43219 C 169.56195 91.06143 169.50952 91.45761 169.50952 91.62074 C 169.50952 92.55295 169.80665 93.36279 170.40094 94.0503 C 170.99522 94.7378 171.59532 95.13981 172.20125 95.25633 C 172.80719 95.37286 173.18006 95.43112 173.3199 95.43112 C 174.2521 95.43112 175.0736 95.13398 175.7844 94.5397 C 176.49521 93.94542 176.94383 93.18219 177.13027 92.24998 Z" fill="black"/>
        </g>
        <g id="Graphic_234">
          <path d="M 195.448 98.81961 L 172.024 57.66761 C 171.896 57.454275 171.736 57.25161 171.544 57.05961 C 171.352 56.86761 171 56.77161 170.488 56.77161 C 170.01866 56.77161 169.67733 56.86761 169.464 57.05961 C 169.25067 57.25161 169.05867 57.454275 168.888 57.66761 L 145.336 98.62761 C 145.208 98.75561 145.12267 98.90494 145.08 99.07561 C 145.03733 99.24628 145.016 99.48094 145.016 99.77961 C 145.016 100.12094 145.10133 100.40894 145.272 100.64361 C 145.44267 100.87828 145.63467 101.09161 145.848 101.28361 C 146.06133 101.47561 146.36 101.57161 146.744 101.57161 L 193.656 101.57161 C 193.95467 101.52894 194.27466 101.45428 194.616 101.34761 C 194.95734 101.24094 195.224 101.01694 195.416 100.67561 C 195.608 100.33427 195.704 100.03561 195.704 99.77961 C 195.704 99.39561 195.61867 99.07561 195.448 98.81961 Z M 170.488 61.18761 L 191.416 98.37161 L 149.176 98.37161 Z" fill="black"/>
        </g>
      </g>
    </g>
  </g>
</svg>
