<?xml version="1.0" encoding="UTF-8" standalone="no"?>
<!DOCTYPE svg PUBLIC "-//W3C//DTD SVG 1.1//EN" "http://www.w3.org/Graphics/SVG/1.1/DTD/svg11.dtd">
<svg xmlns="http://www.w3.org/2000/svg" xmlns:dc="http://purl.org/dc/elements/1.1/" xmlns:xl="http://www.w3.org/1999/xlink" version="1.1" viewBox="178.8484 137.1434 50.624 44.8" width="50.624" height="44.8">
  <defs/>
  <g id="Canvas_1" stroke-dasharray="none" fill="none" stroke-opacity="1" stroke="none" fill-opacity="1">
    <title>Canvas 1</title>
    <g id="Canvas_1_Layer_1">
      <title>Layer 1</title>
      <g id="Graphic_31">
        <path d="M 227.2229 179.62802 L 204.1604 139.69052 L 181.0979 179.62802 Z" fill="#ffed00"/>
      </g>
      <g id="Graphic_214">
        <path d="M 229.2804 179.1274 L 205.8564 138.0394 C 205.7284 137.82606 205.55773 137.6234 205.3444 137.4314 C 205.13106 137.2394 204.78973 137.1434 204.3204 137.1434 C 203.8084 137.1434 203.44573 137.2394 203.2324 137.4314 C 203.01906 137.6234 202.82706 137.82606 202.6564 138.0394 L 179.1044 178.9994 C 179.01906 179.1274 178.95506 179.27673 178.9124 179.4474 C 178.86973 179.61806 178.8484 179.81006 178.8484 180.0234 C 178.8484 180.36473 178.93373 180.67406 179.1044 180.9514 C 179.27506 181.22873 179.46706 181.4634 179.6804 181.6554 C 179.89373 181.8474 180.1924 181.9434 180.5764 181.9434 L 227.4884 181.9434 C 227.82973 181.90073 228.14973 181.82606 228.4484 181.7194 C 228.74706 181.61273 228.9924 181.38873 229.1844 181.0474 C 229.3764 180.70606 229.4724 180.38606 229.4724 180.0874 C 229.4724 179.9594 229.4084 179.6394 229.2804 179.1274 Z M 204.3204 141.5594 L 225.2484 178.6794 L 183.0084 178.6794 Z M 204.1284 149.1114 L 204.1284 149.1114 C 202.63506 149.1114 201.70706 149.4954 201.3444 150.2634 C 200.98173 151.0314 200.75773 151.7994 200.6724 152.5674 L 202.2084 166.8394 C 202.37906 167.26607 202.58173 167.6714 202.8164 168.0554 C 203.05106 168.4394 203.46706 168.6314 204.0644 168.6314 C 204.74707 168.6314 205.20573 168.4394 205.4404 168.0554 C 205.67506 167.6714 205.8564 167.2874 205.9844 166.9034 L 207.5844 152.5034 C 207.41373 151.69273 207.1364 150.92473 206.7524 150.1994 C 206.3684 149.47406 205.49374 149.1114 204.1284 149.1114 Z M 200.8004 173.9434 L 200.8004 173.9434 C 200.8004 174.92473 201.1204 175.7354 201.7604 176.3754 C 202.4004 177.0154 203.21106 177.3354 204.1924 177.3354 C 205.13107 177.3354 205.94173 176.99407 206.6244 176.3114 C 207.30707 175.62873 207.6484 174.8394 207.6484 173.9434 C 207.6484 172.96206 207.30707 172.1514 206.6244 171.5114 C 205.94173 170.8714 205.13107 170.5514 204.1924 170.5514 C 203.25372 170.5514 202.45373 170.88206 201.7924 171.5434 C 201.13106 172.20473 200.8004 173.00472 200.8004 173.9434 Z" fill="black"/>
      </g>
    </g>
  </g>
</svg>
