<?xml version="1.0" encoding="UTF-8" standalone="no"?>
<!DOCTYPE svg PUBLIC "-//W3C//DTD SVG 1.1//EN" "http://www.w3.org/Graphics/SVG/1.1/DTD/svg11.dtd">
<svg xmlns="http://www.w3.org/2000/svg" xmlns:dc="http://purl.org/dc/elements/1.1/" xmlns:xl="http://www.w3.org/1999/xlink" version="1.1" viewBox="145.6875 195.1875 50.624 44.8" width="50.624" height="44.8">
  <defs/>
  <g id="Canvas_1" stroke-dasharray="none" fill="none" stroke-opacity="1" stroke="none" fill-opacity="1">
    <title>Canvas 1</title>
    <g id="Canvas_1_Layer_1">
      <title>Layer 1</title>
      <g id="Group_224">
        <g id="Graphic_63">
          <path d="M 194.0625 237.63125 L 171 197.69375 L 147.9375 237.63125 Z" fill="#ffed00"/>
        </g>
        <g id="Graphic_223">
          <path d="M 196.1195 237.2355 L 172.6955 196.0835 C 172.5675 195.87017 172.39683 195.6675 172.1835 195.4755 C 171.97017 195.2835 171.62884 195.1875 171.1595 195.1875 C 170.69016 195.1875 170.33817 195.2835 170.1035 195.4755 C 169.86883 195.6675 169.66617 195.87017 169.4955 196.0835 L 146.0075 237.1075 C 145.92217 237.15017 145.8475 237.24617 145.7835 237.3955 C 145.7195 237.54483 145.6875 237.8115 145.6875 238.1955 C 145.6875 238.49417 145.77283 238.7715 145.9435 239.0275 C 146.11417 239.2835 146.30617 239.5075 146.5195 239.6995 C 146.73283 239.8915 147.0315 239.9875 147.4155 239.9875 L 194.3275 239.9875 C 194.79684 239.94483 195.17017 239.8595 195.4475 239.7315 C 195.72483 239.6035 195.93817 239.3795 196.0875 239.0595 C 196.23683 238.7395 196.3115 238.43017 196.3115 238.1315 C 196.3115 237.7475 196.2475 237.44883 196.1195 237.2355 Z M 171.1595 199.6675 L 192.0875 236.7875 L 149.8475 236.7875 Z M 175.1915 208.4995 L 171.8635 208.1795 L 169.4955 206.0675 L 162.7755 226.4195 L 171.9275 222.8355 L 170.3275 228.7875 L 167.4475 227.3155 L 170.1355 236.5315 L 177.3035 229.9395 L 173.9755 229.6835 L 177.5595 215.9235 L 169.2395 219.1875 Z" fill="black"/>
        </g>
      </g>
    </g>
  </g>
</svg>
