<?xml version="1.0" encoding="UTF-8" standalone="no"?>
<!DOCTYPE svg PUBLIC "-//W3C//DTD SVG 1.1//EN" "http://www.w3.org/Graphics/SVG/1.1/DTD/svg11.dtd">
<svg xmlns:xl="http://www.w3.org/1999/xlink" xmlns:dc="http://purl.org/dc/elements/1.1/" version="1.1" xmlns="http://www.w3.org/2000/svg" viewBox="214.0772 331.6397 32.48541 46.060214" width="32.48541" height="46.060214">
  <defs/>
  <g id="Canvas_1" stroke="none" stroke-opacity="1" fill-opacity="1" fill="none" stroke-dasharray="none">
    <title>Canvas 1</title>
    <g id="Canvas_1_Layer_1">
      <title>Layer 1</title>
      <g id="Graphic_79">
        <path d="M 219.25553 358.554 L 222.70898 358.554 C 223.22878 358.554 223.65016 358.9754 223.65016 359.4952 L 223.65016 376.28816 C 223.65016 376.80795 223.22878 377.22933 222.70898 377.22933 L 219.25553 377.22933 C 218.73573 377.22933 218.31435 376.80795 218.31435 376.28816 L 218.31435 359.4952 C 218.31435 358.9754 218.73573 358.554 219.25553 358.554 Z" fill="white"/>
        <path d="M 219.25553 358.554 L 222.70898 358.554 C 223.22878 358.554 223.65016 358.9754 223.65016 359.4952 L 223.65016 376.28816 C 223.65016 376.80795 223.22878 377.22933 222.70898 377.22933 L 219.25553 377.22933 C 218.73573 377.22933 218.31435 376.80795 218.31435 376.28816 L 218.31435 359.4952 C 218.31435 358.9754 218.73573 358.554 219.25553 358.554 Z" stroke="black" stroke-linecap="round" stroke-linejoin="round" stroke-width=".9411765"/>
      </g>
      <g id="Graphic_78">
        <path d="M 237.93084 358.554 L 241.3843 358.554 C 241.9041 358.554 242.32547 358.9754 242.32547 359.4952 L 242.32547 376.28816 C 242.32547 376.80795 241.9041 377.22933 241.3843 377.22933 L 237.93084 377.22933 C 237.41105 377.22933 236.98967 376.80795 236.98967 376.28816 L 236.98967 359.4952 C 236.98967 358.9754 237.41105 358.554 237.93084 358.554 Z" fill="white"/>
        <path d="M 237.93084 358.554 L 241.3843 358.554 C 241.9041 358.554 242.32547 358.9754 242.32547 359.4952 L 242.32547 376.28816 C 242.32547 376.80795 241.9041 377.22933 241.3843 377.22933 L 237.93084 377.22933 C 237.41105 377.22933 236.98967 376.80795 236.98967 376.28816 L 236.98967 359.4952 C 236.98967 358.9754 237.41105 358.554 237.93084 358.554 Z" stroke="black" stroke-linecap="round" stroke-linejoin="round" stroke-width=".9411765"/>
      </g>
      <g id="Graphic_77">
        <path d="M 214.3125 350.78746 L 214.3125 361.2219 L 246.32732 361.2219 L 246.32732 350.78746 L 246.32732 349.21636 L 246.32732 342.30946 C 246.32732 340.23027 244.6418 338.54475 242.56262 338.54475 L 232.9878 338.54475 L 232.9878 331.875 L 227.652 331.875 L 227.652 338.54475 L 218.0772 338.54475 C 215.99802 338.54475 214.3125 340.23027 214.3125 342.30946 L 214.3125 349.21636 Z" fill="black"/>
        <path d="M 214.3125 350.78746 L 214.3125 361.2219 L 246.32732 361.2219 L 246.32732 350.78746 L 246.32732 349.21636 L 246.32732 342.30946 C 246.32732 340.23027 244.6418 338.54475 242.56262 338.54475 L 232.9878 338.54475 L 232.9878 331.875 L 227.652 331.875 L 227.652 338.54475 L 218.0772 338.54475 C 215.99802 338.54475 214.3125 340.23027 214.3125 342.30946 L 214.3125 349.21636 Z" stroke="black" stroke-linecap="round" stroke-linejoin="round" stroke-width=".47058824"/>
      </g>
      <g id="Graphic_75">
        <title>V</title>
        <path d="M 239.65757 345.48672 L 237.1017 358.554 L 235.52617 358.554 L 232.9878 345.48672 L 234.87845 345.48672 L 236.29643 354.60814 L 236.33144 354.60814 L 237.76693 345.48672 Z" fill="white"/>
      </g>
      <g id="Graphic_74">
        <title>1</title>
        <path d="M 221.05816 358.554 L 220.98225 344.92866 L 219.6483 344.92866 C 219.6483 344.92866 219.6483 343.69 219.6483 342.45133 C 220.98225 342.45133 221.05816 341.21266 221.05816 341.21266 L 223.65016 341.21266 L 223.65016 358.554 Z" fill="white"/>
      </g>
      <g id="Graphic_73">
        <title>2</title>
        <path d="M 224.9841 358.554 L 224.9841 356.2354 L 229.65987 347.85454 C 229.89705 347.4359 230.03258 347.0696 230.06646 346.7556 C 230.10034 346.44163 230.11728 346.05117 230.11728 345.58423 C 230.11728 345.3749 230.11305 345.1535 230.10458 344.92004 C 230.0961 344.68656 230.04952 344.48127 229.9648 344.30415 C 229.8801 344.12704 229.75305 343.9781 229.58364 343.85734 C 229.41422 343.73657 229.16858 343.6762 228.8467 343.6762 C 228.45705 343.6762 228.14787 343.78085 227.91917 343.99017 C 227.69046 344.1995 227.5761 344.5054 227.5761 344.90796 L 227.5761 346.3088 L 224.9841 346.3088 L 224.9841 344.95627 C 224.9841 344.441 225.08575 343.95797 225.28905 343.50713 C 225.49234 343.0563 225.77187 342.6618 226.12764 342.32366 C 226.46646 341.98553 226.87305 341.71583 227.3474 341.51456 C 227.82176 341.3133 228.33 341.21266 228.8721 341.21266 C 229.54976 341.21266 230.13 341.3294 230.6128 341.56287 C 231.09564 341.79634 231.498 342.11434 231.81987 342.5169 C 232.12481 342.91942 232.34928 343.3783 232.49328 343.89356 C 232.63728 344.4088 232.70928 344.95626 232.70928 345.53592 C 232.70928 345.95456 232.7008 346.30477 232.68387 346.58655 C 232.66693 346.86833 232.63305 347.13802 232.58223 347.39565 C 232.5314 347.65328 232.4467 347.9109 232.3281 348.16852 C 232.20952 348.42615 232.04858 348.74013 231.84528 349.11046 L 228.03352 356.0905 L 232.70928 356.0905 L 232.70928 358.554 Z" fill="white"/>
      </g>
    </g>
  </g>
</svg>
