<?xml version="1.0" encoding="UTF-8" standalone="no"?>
<!DOCTYPE svg PUBLIC "-//W3C//DTD SVG 1.1//EN" "http://www.w3.org/Graphics/SVG/1.1/DTD/svg11.dtd">
<svg xmlns:xl="http://www.w3.org/1999/xlink" xmlns:dc="http://purl.org/dc/elements/1.1/" version="1.1" xmlns="http://www.w3.org/2000/svg" viewBox="157.8645 471.9835 53.648 52.205144" width="53.648" height="52.205144">
  <defs/>
  <g id="Canvas_1" stroke="none" stroke-opacity="1" fill-opacity="1" fill="none" stroke-dasharray="none">
    <title>Canvas 1</title>
    <g id="Canvas_1_Layer_1">
      <title>Layer 1</title>
      <g id="Graphic_116">
        <title></title>
        <path d="M 161.01255 507.2679 L 174.78526 521.0406 L 193.54239 521.0406 L 207.3151 507.2679 L 207.3151 488.90426 L 193.54239 475.13155 L 174.78526 475.13155 L 161.01255 488.90426 Z M 177.40864 493.8887 L 173.67033 493.8887 L 173.67033 491.52764 L 183.96707 491.52764 L 183.96707 493.8887 L 180.16318 493.8887 L 180.16318 503.98866 L 177.40864 503.98866 Z M 183.31123 497.75815 C 183.31123 491.2653 187.90213 491.13413 189.2794 491.13413 C 190.65668 491.13413 195.24758 491.2653 195.24758 497.75815 C 195.24758 504.251 190.65668 504.38217 189.2794 504.38217 C 187.90213 504.38217 183.31123 504.251 183.31123 497.75815 Z M 196.16576 491.52764 L 201.54368 491.52764 C 203.77355 491.52764 205.6099 493.364 205.6099 495.59387 C 205.6099 497.82373 203.77355 499.6601 201.54368 499.6601 L 198.9203 499.6601 L 198.9203 503.98866 L 196.16576 503.98866 Z M 166.06254 500.25036 C 166.45605 501.7588 167.24306 502.02113 168.68592 502.02113 C 170.8502 502.02113 171.2437 501.2341 171.2437 500.5783 C 171.2437 499.7257 170.91579 499.39776 167.57098 498.61075 C 164.5541 497.8893 163.7671 496.83997 163.7671 495.0692 C 163.7671 493.364 164.75086 491.13413 168.68592 491.13413 C 172.68656 491.13413 173.47358 493.56075 173.53916 495.0692 L 171.11254 495.0692 C 170.8502 494.2166 170.4567 493.49517 168.68592 493.49517 C 166.84956 493.49517 166.52163 494.2166 166.52163 494.6757 C 166.52163 495.26594 166.71839 495.72504 168.03007 495.9874 L 171.11254 496.7744 C 173.408 497.36464 173.99825 499.2666 173.99825 500.25036 C 173.99825 501.49646 173.408 504.38217 168.81709 504.38217 C 164.81644 504.38217 163.57034 502.02113 163.50475 500.25036 Z M 186.06577 497.75815 C 186.06577 501.16854 187.90213 502.02113 189.2794 502.02113 C 190.65668 502.02113 192.49304 501.16854 192.49304 497.75815 C 192.49304 494.34776 190.65668 493.49517 189.2794 493.49517 C 187.90213 493.49517 186.06577 494.34776 186.06577 497.75815 Z M 198.9203 497.29906 L 201.15017 497.29906 C 202.06835 497.29906 202.85537 496.51205 202.85537 495.59387 C 202.85537 494.6757 202.06835 493.8887 201.15017 493.8887 L 198.9203 493.8887 Z M 159.04502 488.11725 L 173.99825 473.164 L 194.3294 473.164 L 209.28263 488.11725 L 209.28263 508.0549 L 194.3294 523.0081 L 173.99825 523.0081 L 159.04502 508.0549 Z M 157.8645 508.71074 L 173.3424 524.18864 L 194.98524 524.18864 L 210.46315 508.71074 L 210.46315 487.4614 L 194.98524 471.9835 L 173.3424 471.9835 L 157.8645 487.4614 Z" fill="red"/>
      </g>
    </g>
  </g>
</svg>
