<?xml version="1.0" encoding="UTF-8" standalone="no"?>
<!DOCTYPE svg PUBLIC "-//W3C//DTD SVG 1.1//EN" "http://www.w3.org/Graphics/SVG/1.1/DTD/svg11.dtd">
<svg xmlns:dc="http://purl.org/dc/elements/1.1/" version="1.1" xmlns:xl="http://www.w3.org/1999/xlink" xmlns="http://www.w3.org/2000/svg" viewBox="137.2575 316.2265 53.648 51.296" width="53.648" height="51.296">
  <defs/>
  <g id="Canvas_1" stroke-dasharray="none" fill="none" fill-opacity="1" stroke-opacity="1" stroke="none">
    <title>Canvas 1</title>
    <g id="Canvas_1_Layer_1">
      <title>Layer 1</title>
      <g id="Graphic_71">
        <circle cx="162.5625" cy="341.8745" r="22.5000359527927" fill="white"/>
      </g>
      <g id="Graphic_70">
        <title>􀉼</title>
        <path d="M 151.3125 347.8582 C 151.3125 349.66255 151.58967 351.27123 152.14402 352.6843 C 152.69837 354.09733 153.47554 355.2957 154.47554 356.2794 C 155.47555 357.2631 156.6576 358.0131 158.02174 358.5294 C 159.38588 359.0457 160.8777 359.30385 162.49728 359.30385 C 165.08425 359.30385 167.2201 358.76038 168.9049 357.6734 C 170.58968 356.58645 171.96467 354.95603 173.0299 352.7821 C 173.3451 352.1734 173.64402 351.53755 173.92663 350.8745 C 174.20924 350.21145 174.48098 349.51853 174.74185 348.7957 C 175.00272 348.07287 175.25815 347.32016 175.50815 346.53754 C 175.75815 345.75493 176.01359 344.94516 176.27446 344.1082 C 176.41576 343.65167 176.56522 343.1707 176.72283 342.66526 C 176.88044 342.15982 177.0163 341.6897 177.13043 341.25493 C 177.24457 340.82015 177.30163 340.47233 177.30163 340.21146 C 177.30163 339.77667 177.1576 339.4234 176.86957 339.15167 C 176.58152 338.87993 176.2038 338.74407 175.73641 338.74407 C 175.22554 338.74407 174.79348 338.91798 174.44022 339.2658 C 174.08695 339.61363 173.72011 340.1734 173.33967 340.94515 L 171.07337 345.70602 C 170.96467 345.9669 170.8451 346.15167 170.71467 346.26037 C 170.58424 346.36907 170.4538 346.4234 170.32337 346.4234 C 170.14946 346.4234 170.01087 346.36635 169.9076 346.2522 C 169.80435 346.1381 169.75272 345.9397 169.75272 345.6571 L 169.75272 328.55385 C 169.75272 328.0756 169.58152 327.66526 169.23913 327.32287 C 168.89674 326.98048 168.48642 326.8093 168.00815 326.8093 C 167.52989 326.8093 167.11957 326.98048 166.77717 327.32287 C 166.43478 327.66526 166.26359 328.0756 166.26359 328.55385 L 166.26359 340.7821 C 166.03532 340.69515 165.80163 340.61907 165.5625 340.55385 C 165.32337 340.48863 165.07337 340.4343 164.8125 340.3908 L 164.8125 326.20602 C 164.8125 325.7169 164.6413 325.30113 164.29891 324.95874 C 163.95652 324.61635 163.5462 324.44515 163.06793 324.44515 C 162.5788 324.44515 162.16305 324.61635 161.82065 324.95874 C 161.47826 325.30113 161.30707 325.7169 161.30707 326.20602 L 161.30707 340.21146 C 161.05706 340.2332 160.80163 340.26037 160.54076 340.29298 C 160.27989 340.3256 160.02446 340.36363 159.77446 340.4071 L 159.77446 327.5919 C 159.77446 327.11363 159.60326 326.7033 159.26087 326.3609 C 158.91848 326.01852 158.50815 325.84733 158.0299 325.84733 C 157.55163 325.84733 157.1413 326.01852 156.79891 326.3609 C 156.45652 326.7033 156.28533 327.11363 156.28533 327.5919 L 156.28533 341.5158 C 156.01359 341.64624 155.75544 341.7821 155.51087 341.9234 C 155.2663 342.0647 155.03533 342.20602 154.81793 342.34733 L 154.81793 332.66254 C 154.81793 332.1843 154.64674 331.77396 154.30435 331.43157 C 153.96195 331.08917 153.55163 330.91798 153.07337 330.91798 C 152.58424 330.91798 152.16848 331.08917 151.82609 331.43157 C 151.4837 331.77396 151.3125 332.1843 151.3125 332.66254 Z" fill="black"/>
      </g>
      <g id="Graphic_69">
        <title></title>
        <path d="M 137.2575 341.8745 C 137.2575 356.0425 148.7375 367.5225 162.9055 367.5225 C 177.0735 367.5225 188.5535 356.0425 188.5535 341.8745 C 188.5535 327.7065 177.0735 316.2265 162.9055 316.2265 C 148.7375 316.2265 137.2575 327.7065 137.2575 341.8745 Z M 175.5615 358.1145 C 172.0895 360.8585 167.7215 362.4825 162.9055 362.4825 C 151.5375 362.4825 142.2975 353.2425 142.2975 341.8745 C 142.2975 336.7225 144.2015 332.0185 147.2815 328.4345 Z M 150.4175 325.4665 C 153.9455 322.8345 158.2575 321.2665 162.9055 321.2665 C 174.2735 321.2665 183.5135 330.5065 183.5135 341.8745 C 183.5135 346.8585 181.7215 351.3945 178.8095 354.9785 Z" fill="red"/>
      </g>
    </g>
  </g>
</svg>
