<?xml version="1.0" encoding="UTF-8" standalone="no"?>
<!DOCTYPE svg PUBLIC "-//W3C//DTD SVG 1.1//EN" "http://www.w3.org/Graphics/SVG/1.1/DTD/svg11.dtd">
<svg xmlns:dc="http://purl.org/dc/elements/1.1/" version="1.1" xmlns:xl="http://www.w3.org/1999/xlink" xmlns="http://www.w3.org/2000/svg" viewBox="207.155 195.2625 51.904 44.8" width="51.904" height="44.8">
  <defs/>
  <g id="Canvas_1" stroke-dasharray="none" fill="none" fill-opacity="1" stroke-opacity="1" stroke="none">
    <title>Canvas 1</title>
    <g id="Canvas_1_Layer_1">
      <title>Layer 1</title>
      <g id="Graphic_64">
        <path d="M 255.375 237.63125 L 232.3125 197.69375 L 209.25 237.63125 Z" fill="#ffed00"/>
      </g>
      <g id="Graphic_39">
        <title>L</title>
        <path d="M 257.587 237.2465 C 257.715 237.45983 257.779 237.7585 257.779 238.1425 C 257.779 238.44117 257.69367 238.77183 257.523 239.1345 C 257.35233 239.49717 257.107 239.73183 256.787 239.8385 C 256.467 239.94517 256.13634 240.01983 255.795 240.0625 L 208.883 240.0625 C 208.499 240.0625 208.20033 239.9665 207.987 239.7745 C 207.77367 239.5825 207.58167 239.34783 207.411 239.0705 C 207.24033 238.79317 207.155 238.50517 207.155 238.2065 C 207.155 237.8225 207.187 237.55583 207.251 237.4065 C 207.315 237.25717 207.38967 237.16117 207.475 237.1185 L 230.963 196.1585 C 231.13367 195.94517 231.33633 195.7425 231.571 195.5505 C 231.80567 195.3585 232.15766 195.2625 232.627 195.2625 C 233.09634 195.2625 233.43767 195.3585 233.651 195.5505 C 233.86433 195.7425 234.035 195.94517 234.163 196.1585 Z M 232.627 199.6785 L 211.315 236.7985 L 253.555 236.7985 Z M 239.155 227.0705 C 239.155 228.8625 238.53634 230.3985 237.299 231.6785 C 236.06166 232.9585 234.52568 233.5985 232.691 233.5985 C 230.899 233.5985 229.363 232.9585 228.083 231.6785 C 226.803 230.3985 226.163 228.8625 226.163 227.0705 C 226.163 225.2785 226.803 223.76384 228.083 222.5265 C 229.363 221.28916 230.899 220.6705 232.691 220.6705 C 234.44034 220.6705 235.955 221.28916 237.235 222.5265 C 238.515 223.76384 239.155 225.2785 239.155 227.0705 Z M 226.547 223.7425 L 226.355 223.0385 C 226.26967 223.1665 226.227 223.36917 226.227 223.6465 C 226.227 223.92383 226.227 224.1905 226.227 224.4465 C 226.05633 224.78784 225.92833 225.19316 225.843 225.6625 C 225.75767 226.13184 225.715 226.60116 225.715 227.0705 L 225.715 227.6465 C 225.331 227.2625 225.09633 226.79317 225.011 226.2385 C 224.92567 225.68383 224.86167 225.1505 224.819 224.6385 L 224.947 221.5665 C 224.947 220.96916 224.64834 220.49984 224.051 220.1585 C 224.52034 219.9025 225.16033 220.17983 225.971 220.9905 C 225.92833 220.81983 225.98167 220.48917 226.131 219.9985 C 226.28033 219.50783 226.37633 219.1985 226.419 219.0705 L 226.867 217.7265 C 226.90967 217.51317 226.931 217.23584 226.931 216.8945 C 226.931 216.3825 226.84567 216.00917 226.675 215.7745 C 226.50433 215.53983 226.20567 215.25184 225.779 214.9105 C 226.33367 214.7825 226.85633 214.9745 227.347 215.4865 C 227.83767 215.9985 228.16833 216.4465 228.339 216.8305 C 228.63767 216.27583 228.90433 215.7105 229.139 215.1345 C 229.37367 214.5585 229.491 213.99317 229.491 213.4385 C 229.491 213.09716 229.46967 212.75584 229.427 212.4145 C 229.38433 212.07316 229.25633 211.81717 229.043 211.6465 C 228.82967 211.47583 228.467 211.28383 227.955 211.0705 C 228.211 210.9425 228.467 210.8785 228.723 210.8785 C 229.19234 210.8785 229.66166 211.0385 230.131 211.3585 C 230.60034 211.6785 230.963 212.0305 231.219 212.4145 C 231.26167 212.2865 231.27233 212.08383 231.251 211.8065 C 231.22967 211.52917 231.219 211.2625 231.219 211.0065 C 231.17633 210.32383 231.155 209.81184 231.155 209.4705 C 231.155 208.61716 231.22967 207.95584 231.379 207.4865 C 231.52833 207.01716 231.923 206.54784 232.563 206.0785 C 232.52033 206.67584 232.63767 207.3585 232.915 208.1265 C 233.19233 208.8945 233.427 209.4065 233.619 209.6625 C 233.811 209.9185 234.15233 210.40916 234.643 211.1345 C 235.13367 211.85984 235.443 212.58516 235.571 213.3105 C 235.699 212.9265 235.763 212.58517 235.763 212.2865 C 235.763 211.98783 235.731 211.76383 235.667 211.6145 C 235.603 211.46517 235.48567 211.24117 235.315 210.9425 C 236.979 211.79584 237.811 213.4385 237.811 215.8705 C 237.85367 215.7425 237.88567 215.53983 237.907 215.2625 C 237.92833 214.98517 237.96033 214.7185 238.003 214.4625 C 238.003 214.16383 238.003 213.9825 238.003 213.9185 C 238.003 213.8545 238.003 213.80117 238.003 213.7585 C 238.515 214.22784 238.88833 214.85716 239.123 215.6465 C 239.35767 216.43584 239.475 217.2785 239.475 218.1745 C 239.475 218.51584 239.475 218.85716 239.475 219.1985 C 239.38967 219.5825 239.347 219.85983 239.347 220.0305 C 239.859 219.9025 240.243 219.9665 240.499 220.2225 C 240.07233 220.81984 239.859 221.45983 239.859 222.1425 C 239.859 222.61184 239.923 223.1025 240.051 223.6145 C 240.051 223.8705 240.07233 224.1585 240.115 224.4785 C 240.15767 224.7985 240.179 225.10783 240.179 225.4065 C 240.179 226.21717 239.987 227.0065 239.603 227.7745 L 239.603 227.0705 C 239.603 225.23582 239.00567 223.6785 237.811 222.3985 L 237.747 220.9265 C 237.619 220.96917 237.491 221.04383 237.363 221.1505 C 237.235 221.25717 237.12833 221.4385 237.043 221.6945 L 236.275 221.1825 L 236.147 220.0305 C 236.06167 219.94517 235.99767 219.76383 235.955 219.4865 C 235.91233 219.20917 235.86967 218.9425 235.827 218.6865 C 235.699 218.8145 235.54967 219.14516 235.379 219.6785 C 235.20833 220.21184 235.123 220.52117 235.123 220.6065 L 234.099 220.2865 L 233.779 219.0065 C 233.651 218.70783 233.54433 218.3345 233.459 217.8865 C 233.37367 217.4385 233.331 217.17183 233.331 217.0865 C 233.331 216.1905 233.11767 215.46517 232.691 214.9105 C 232.73367 214.99583 232.70167 215.37983 232.595 216.0625 C 232.48833 216.74517 232.38167 217.26783 232.275 217.6305 C 232.16833 217.99317 232.115 218.3025 232.115 218.5585 C 232.115 218.98517 232.12567 219.30517 232.147 219.5185 C 232.16833 219.73183 232.22167 219.94517 232.307 220.1585 L 231.219 220.2865 C 230.62166 219.56116 230.259 219.0065 230.131 218.6225 C 230.04567 218.83583 230.04567 219.18783 230.131 219.6785 C 230.21633 220.16917 230.28033 220.45717 230.323 220.5425 C 229.555 220.7985 228.915 221.13983 228.403 221.5665 C 228.23233 221.48117 228.10433 221.29983 228.019 221.0225 C 227.93367 220.74517 227.86967 220.43584 227.827 220.0945 C 227.61367 220.4785 227.507 220.94783 227.507 221.5025 C 227.507 221.71583 227.507 221.8865 227.507 222.0145 C 227.507 222.1425 227.52833 222.22783 227.571 222.2705 Z M 225.523 234.8145 L 225.523 233.5985 L 240.115 233.5985 L 240.115 234.8145 Z M 227.571 227.0705 C 227.571 228.4785 228.06166 229.6945 229.043 230.7185 C 230.02434 231.7425 231.24033 232.2545 232.691 232.2545 C 234.05634 232.2545 235.251 231.7425 236.275 230.7185 C 237.299 229.6945 237.811 228.4785 237.811 227.0705 C 237.811 225.6625 237.30967 224.45717 236.307 223.4545 C 235.30433 222.45183 234.099 221.9505 232.691 221.9505 C 231.283 221.9505 230.07767 222.45183 229.075 223.4545 C 228.07233 224.45717 227.571 225.6625 227.571 227.0705 Z" fill="black"/>
      </g>
    </g>
  </g>
</svg>
