<?xml version="1.0" encoding="UTF-8" standalone="no"?>
<!DOCTYPE svg PUBLIC "-//W3C//DTD SVG 1.1//EN" "http://www.w3.org/Graphics/SVG/1.1/DTD/svg11.dtd">
<svg xmlns:dc="http://purl.org/dc/elements/1.1/" version="1.1" xmlns:xl="http://www.w3.org/1999/xlink" xmlns="http://www.w3.org/2000/svg" viewBox="145.6875 195.1875 51.904 44.8" width="51.904" height="44.8">
  <defs/>
  <g id="Canvas_1" stroke-dasharray="none" fill="none" fill-opacity="1" stroke-opacity="1" stroke="none">
    <title>Canvas 1</title>
    <g id="Canvas_1_Layer_1">
      <title>Layer 1</title>
      <g id="Graphic_63">
        <path d="M 194.0625 237.63125 L 171 197.69375 L 147.9375 237.63125 Z" fill="#ffed00"/>
      </g>
      <g id="Graphic_34">
        <title>F</title>
        <path d="M 196.1195 237.2355 C 196.2475 237.44883 196.3115 237.7475 196.3115 238.1315 C 196.3115 238.43017 196.23683 238.7395 196.0875 239.0595 C 195.93817 239.3795 195.72483 239.6035 195.4475 239.7315 C 195.17017 239.8595 194.79684 239.94483 194.3275 239.9875 L 147.4155 239.9875 C 147.0315 239.9875 146.73283 239.8915 146.5195 239.6995 C 146.30617 239.5075 146.11417 239.2835 145.9435 239.0275 C 145.77283 238.7715 145.6875 238.49417 145.6875 238.1955 C 145.6875 237.8115 145.7195 237.54483 145.7835 237.3955 C 145.8475 237.24617 145.92217 237.15017 146.0075 237.1075 L 169.4955 196.0835 C 169.66617 195.87017 169.86883 195.6675 170.1035 195.4755 C 170.33817 195.2835 170.69016 195.1875 171.1595 195.1875 C 171.62884 195.1875 171.97017 195.2835 172.1835 195.4755 C 172.39683 195.6675 172.5675 195.87017 172.6955 196.0835 Z M 171.1595 199.6675 L 149.8475 236.7875 L 192.0875 236.7875 Z M 175.1915 208.4995 L 169.2395 219.1875 L 177.5595 215.9235 L 173.9755 229.6835 L 177.3035 229.9395 L 170.1355 236.5315 L 167.4475 227.3155 L 170.3275 228.7875 L 171.9275 222.8355 L 162.7755 226.4195 L 169.4955 206.0675 L 171.8635 208.1795 Z" fill="black"/>
      </g>
    </g>
  </g>
</svg>
