<?xml version="1.0" encoding="UTF-8" standalone="no"?>
<!DOCTYPE svg PUBLIC "-//W3C//DTD SVG 1.1//EN" "http://www.w3.org/Graphics/SVG/1.1/DTD/svg11.dtd">
<svg xmlns:dc="http://purl.org/dc/elements/1.1/" version="1.1" xmlns:xl="http://www.w3.org/1999/xlink" xmlns="http://www.w3.org/2000/svg" viewBox="177.905 136.2 51.904 44.8" width="51.904" height="44.8">
  <defs/>
  <g id="Canvas_1" stroke-dasharray="none" fill="none" fill-opacity="1" stroke-opacity="1" stroke="none">
    <title>Canvas 1</title>
    <g id="Canvas_1_Layer_1">
      <title>Layer 1</title>
      <g id="Graphic_31">
        <path d="M 226.41648 178.56875 L 203.35398 138.63125 L 180.29148 178.56875 Z" fill="#ffed10"/>
      </g>
      <g id="Graphic_32">
        <title>!</title>
        <path d="M 228.337 178.184 C 228.465 178.696 228.529 179.016 228.529 179.144 C 228.529 179.44267 228.433 179.76266 228.241 180.104 C 228.049 180.44534 227.80367 180.66933 227.505 180.776 C 227.20633 180.88267 226.88634 180.95733 226.545 181 L 179.633 181 C 179.249 181 178.95033 180.904 178.737 180.712 C 178.52367 180.52 178.33167 180.28533 178.161 180.008 C 177.99033 179.73067 177.905 179.42134 177.905 179.08 C 177.905 178.86667 177.92633 178.67467 177.969 178.504 C 178.01167 178.33333 178.07567 178.184 178.161 178.056 L 201.713 137.096 C 201.88367 136.88267 202.07567 136.68 202.289 136.488 C 202.50233 136.296 202.865 136.2 203.377 136.2 C 203.84634 136.2 204.18767 136.296 204.401 136.488 C 204.61433 136.68 204.785 136.88267 204.913 137.096 Z M 203.377 140.616 L 182.065 177.736 L 224.305 177.736 Z M 203.185 148.168 C 204.55034 148.168 205.425 148.53066 205.809 149.256 C 206.193 149.98134 206.47033 150.74933 206.641 151.56 L 205.041 165.96 C 204.913 166.344 204.73167 166.728 204.497 167.112 C 204.26233 167.496 203.80367 167.688 203.121 167.688 C 202.52366 167.688 202.10767 167.496 201.873 167.112 C 201.63833 166.728 201.43567 166.32267 201.265 165.896 L 199.729 151.624 C 199.81433 150.856 200.03833 150.088 200.401 149.32 C 200.76367 148.552 201.69166 148.168 203.185 148.168 Z M 199.857 173 C 199.857 172.06133 200.18766 171.26134 200.849 170.6 C 201.51034 169.93866 202.31033 169.608 203.249 169.608 C 204.18767 169.608 204.99833 169.928 205.681 170.568 C 206.36367 171.208 206.705 172.01866 206.705 173 C 206.705 173.896 206.36367 174.68533 205.681 175.368 C 204.99833 176.05067 204.18767 176.392 203.249 176.392 C 202.26766 176.392 201.457 176.072 200.817 175.432 C 200.177 174.792 199.857 173.98134 199.857 173 Z" fill="black"/>
      </g>
    </g>
  </g>
</svg>
